{"glyphs":{"0":{"ha":744,"x_min":28,"x_max":717,"o":"m 372 -12 q 234 22 297 -12 q 125 118 171 56 q 53 271 79 181 q 28 474 28 361 q 53 675 28 585 q 125 828 79 765 q 234 926 171 892 q 372 961 297 961 q 510 926 447 961 q 619 828 574 892 q 691 675 665 765 q 717 474 717 585 q 691 271 717 361 q 619 118 665 181 q 510 22 574 56 q 372 -12 447 -12 m 372 72 q 471 100 425 72 q 551 180 517 128 q 604 306 585 232 q 624 474 624 381 q 604 640 624 565 q 551 765 585 714 q 471 844 517 817 q 372 872 425 872 q 269 844 317 872 q 188 765 222 817 q 133 640 153 714 q 114 474 114 565 q 133 306 114 381 q 188 180 153 232 q 269 100 222 128 q 372 72 317 72 z "},"1":{"ha":151,"x_min":28,"x_max":124,"o":"m 28 0 l 28 936 l 124 972 l 124 0 l 28 0 z "},"2":{"ha":632,"x_min":28,"x_max":604,"o":"m 38 100 l 321 407 q 374 469 346 436 q 425 539 401 503 q 464 611 449 575 q 479 683 479 647 q 466 757 479 722 q 428 817 453 792 q 369 858 404 843 q 289 872 333 872 q 173 839 219 872 q 107 747 126 806 l 28 814 q 133 927 64 885 q 289 969 203 969 q 408 948 356 969 q 498 888 461 926 q 555 796 535 849 q 575 679 575 743 q 558 591 575 635 q 517 506 542 547 q 461 426 492 464 q 403 358 431 389 l 274 215 l 161 92 l 604 92 l 604 0 l 38 0 l 38 100 z "},"3":{"ha":675,"x_min":28,"x_max":647,"o":"m 647 269 q 620 149 647 200 q 547 62 593 97 q 440 9 501 26 q 313 -8 379 -8 q 155 19 221 -8 q 28 107 89 46 l 106 172 q 198 100 144 122 q 313 78 251 78 q 483 128 421 78 q 546 269 546 179 q 471 415 546 367 q 261 464 396 464 l 229 464 l 229 560 l 264 560 q 358 571 315 560 q 433 603 401 582 q 483 658 465 625 q 501 733 501 690 q 486 796 501 767 q 445 847 471 825 q 384 880 419 868 q 308 892 349 892 q 192 870 238 892 q 110 804 147 849 l 38 865 q 153 951 92 924 q 307 978 215 978 q 424 963 369 978 q 518 917 478 947 q 581 842 558 888 q 604 735 604 796 q 562 599 604 654 q 449 519 519 543 q 592 435 536 496 q 647 269 647 374 z "},"4":{"ha":707,"x_min":28,"x_max":679,"o":"m 494 1 l 494 260 l 28 260 l 28 333 l 504 971 l 592 971 l 592 358 l 679 358 l 679 260 l 592 260 l 592 1 l 494 1 m 494 358 l 493 794 l 163 358 l 494 358 z "},"5":{"ha":681,"x_min":28,"x_max":653,"o":"m 653 333 q 628 209 653 269 q 558 101 603 149 q 452 24 514 53 q 317 -6 390 -6 q 156 24 222 -6 q 28 111 89 53 l 103 179 q 197 111 140 131 q 317 92 254 92 q 412 110 368 92 q 488 161 456 129 q 538 236 519 193 q 557 328 557 279 q 481 500 557 442 q 275 558 404 558 q 228 556 254 558 q 177 551 203 554 q 126 544 151 549 q 82 533 101 539 l 124 972 l 578 972 l 578 874 l 207 874 l 186 647 q 241 651 210 650 q 296 653 272 653 q 433 635 368 653 q 547 580 497 618 q 624 481 596 542 q 653 333 653 419 z "},"6":{"ha":703,"x_min":28,"x_max":675,"o":"m 28 379 q 56 572 28 475 q 147 750 85 668 q 310 892 210 832 q 553 979 410 953 l 581 894 q 283 760 386 849 q 146 524 179 671 l 146 522 q 253 590 197 571 q 390 608 310 608 q 497 588 446 608 q 588 528 549 567 q 651 435 628 490 q 675 310 675 379 q 653 182 675 240 q 589 81 631 124 q 488 15 547 39 q 357 -10 429 -10 q 217 21 278 -10 q 114 104 156 51 q 50 228 72 157 q 28 379 28 299 m 128 358 q 144 252 128 303 q 190 163 160 201 q 263 102 219 125 q 361 79 306 79 q 451 96 411 79 q 519 142 492 113 q 563 214 547 172 q 578 304 578 256 q 562 392 578 353 q 519 458 546 431 q 455 499 492 485 q 376 513 418 513 q 244 484 306 513 q 133 410 182 456 q 129 385 131 399 q 128 358 128 372 z "},"7":{"ha":628,"x_min":28,"x_max":600,"o":"m 600 897 l 436 600 q 356 449 394 522 q 287 306 317 376 q 239 169 257 236 q 221 35 221 101 l 221 3 l 125 3 l 125 32 q 134 146 125 93 q 162 252 143 199 q 210 365 181 306 q 278 497 239 424 q 368 662 318 569 q 481 874 418 754 l 28 874 l 28 972 l 600 972 l 600 897 z "},"8":{"ha":729,"x_min":28,"x_max":701,"o":"m 28 269 q 83 435 28 374 q 226 519 139 496 q 113 599 156 543 q 71 735 71 654 q 94 842 71 796 q 157 917 117 888 q 251 963 197 947 q 368 978 306 978 l 374 978 q 465 965 425 978 q 605 888 551 944 q 658 735 658 831 q 616 599 658 654 q 503 519 574 543 q 646 435 590 496 q 701 269 701 374 q 680 160 701 208 q 621 77 658 111 q 533 22 583 43 q 424 -4 482 1 l 407 -7 q 394 -8 400 -7 q 382 -8 389 -8 l 381 -8 l 367 -8 l 363 -8 l 350 -8 l 306 -4 q 197 22 247 1 q 108 77 146 43 q 49 160 71 111 q 28 269 28 208 m 597 269 q 536 405 597 357 q 365 461 475 453 q 193 405 254 453 q 132 269 132 357 q 154 174 132 215 q 248 104 192 128 q 363 81 304 81 q 478 103 421 81 q 575 174 536 126 q 597 269 597 213 m 358 886 q 285 873 319 885 q 226 841 251 861 q 185 794 200 821 q 171 733 171 767 q 186 666 171 696 q 227 615 201 636 q 288 580 253 593 q 365 563 324 567 q 441 580 406 567 q 502 615 476 593 q 543 666 528 636 q 558 733 558 696 q 543 795 558 767 q 501 844 528 824 q 439 875 475 864 q 363 886 403 886 l 358 886 z "},"9":{"ha":703,"x_min":28,"x_max":675,"o":"m 675 590 q 647 398 675 494 q 556 219 618 301 q 393 77 493 138 q 150 -10 293 17 l 122 75 q 293 131 219 97 q 420 209 367 164 q 507 313 474 254 q 557 446 540 372 l 557 447 q 449 380 506 399 q 313 361 393 361 q 206 382 257 361 q 115 441 154 403 q 51 535 75 479 q 28 660 28 590 q 50 787 28 728 q 114 888 72 846 q 214 955 156 931 q 346 979 272 979 q 486 949 425 979 q 589 865 547 918 q 653 742 631 813 q 675 590 675 671 m 575 611 q 559 717 575 667 q 513 806 543 768 q 440 867 483 844 q 342 890 397 890 q 251 874 292 890 q 183 827 211 857 q 140 756 156 797 q 125 665 125 714 q 141 578 125 617 q 184 512 157 539 q 248 471 211 485 q 326 457 285 457 q 459 485 397 457 q 569 560 521 514 q 574 584 572 571 q 575 611 575 597 z "},"Q":{"ha":961,"x_min":28,"x_max":933,"o":"m 933 492 q 914 333 933 410 q 855 194 894 257 q 756 83 815 131 q 618 13 697 35 l 738 -139 l 624 -139 l 521 -4 q 500 -6 510 -6 q 479 -7 490 -7 q 283 35 367 -7 q 142 145 199 76 q 56 304 85 214 q 28 492 28 394 q 56 678 28 589 q 142 835 85 767 q 283 944 199 903 q 479 985 367 985 q 677 944 592 985 q 819 835 763 903 q 905 678 876 767 q 933 492 933 589 m 829 490 q 807 640 829 569 q 741 765 785 711 q 632 850 697 818 q 479 882 567 882 q 328 851 393 882 q 220 766 264 819 q 154 641 176 713 q 132 490 132 569 q 154 340 132 411 q 220 214 176 268 q 328 128 264 160 q 479 96 393 96 q 632 127 567 96 q 741 213 697 158 q 807 338 785 267 q 829 490 829 410 z "},"R":{"ha":731,"x_min":28,"x_max":703,"o":"m 360 415 l 131 415 l 131 0 l 28 0 l 28 972 l 390 972 q 498 950 447 972 q 586 890 549 928 q 646 802 624 853 q 668 693 668 751 q 653 605 668 647 q 614 528 639 563 q 553 467 589 493 q 476 428 518 442 l 703 0 l 588 0 l 360 415 m 131 518 l 390 518 q 458 532 426 518 q 514 569 490 546 q 551 625 538 593 q 565 693 565 657 q 551 761 565 729 q 514 817 538 793 q 458 855 490 840 q 390 869 426 869 l 131 869 l 131 518 z "},"S":{"ha":749,"x_min":28,"x_max":721,"o":"m 622 765 q 522 849 578 824 q 392 874 467 874 q 238 833 293 874 q 183 732 183 792 q 206 668 183 696 q 265 619 229 640 q 345 581 301 597 q 429 549 389 564 q 519 514 468 536 q 615 458 569 492 q 690 378 660 425 q 721 267 721 331 q 695 149 721 200 q 624 63 669 97 q 515 11 578 29 q 381 -7 453 -7 q 190 32 276 -7 q 28 157 104 71 l 111 226 q 228 129 160 160 q 383 99 296 99 q 477 110 435 99 q 550 141 519 121 q 598 188 581 161 q 615 247 615 215 q 592 323 615 290 q 532 380 568 356 q 450 422 496 404 q 361 453 404 439 q 259 490 310 471 q 167 537 208 508 q 101 609 126 565 q 76 722 76 653 q 94 818 76 772 q 149 899 111 864 q 246 956 186 935 q 389 976 306 976 q 568 944 489 976 q 718 828 647 913 l 628 757 l 622 765 z "},"T":{"ha":642,"x_min":28,"x_max":614,"o":"m 375 869 l 375 0 l 272 0 l 272 869 l 28 869 l 28 972 l 614 972 l 614 869 l 375 869 z "},"U":{"ha":833,"x_min":28,"x_max":806,"o":"m 415 -10 q 349 -6 382 -10 q 223 28 281 3 q 123 96 165 54 q 56 194 81 138 q 28 319 31 250 l 28 336 l 28 972 l 131 972 l 131 335 q 150 231 131 275 q 203 158 169 188 q 283 114 238 129 q 381 94 329 99 q 393 93 388 93 q 406 93 399 93 l 415 93 l 418 93 l 428 93 q 440 93 435 93 q 451 94 444 93 q 549 114 503 99 q 629 158 594 129 q 683 231 664 188 q 703 335 703 275 l 703 972 l 806 972 l 806 336 l 806 319 q 778 194 803 250 q 710 96 753 138 q 609 28 667 54 q 483 -6 551 3 l 432 -10 l 418 -10 l 415 -10 z "},"V":{"ha":858,"x_min":28,"x_max":831,"o":"m 429 168 l 714 972 l 831 972 l 485 0 l 374 0 l 28 972 l 144 972 l 429 168 z "},"W":{"ha":1251,"x_min":28,"x_max":1224,"o":"m 951 0 l 843 0 l 631 761 l 413 0 l 300 0 l 28 972 l 142 972 l 358 210 l 571 972 l 685 972 l 897 210 l 1110 972 l 1224 972 l 951 0 z "},"X":{"ha":865,"x_min":28,"x_max":838,"o":"m 161 0 l 28 0 l 368 490 l 33 972 l 167 972 l 432 585 l 699 972 l 832 972 l 496 490 l 838 0 l 703 0 l 432 396 l 161 0 z "},"Y":{"ha":849,"x_min":28,"x_max":821,"o":"m 424 582 l 699 972 l 821 972 l 476 464 l 475 0 l 372 0 l 372 463 l 28 972 l 150 972 l 424 582 z "},"Z":{"ha":763,"x_min":28,"x_max":735,"o":"m 167 103 l 735 103 l 735 0 l 28 0 l 28 103 l 561 869 l 57 869 l 57 972 l 700 972 l 700 871 l 167 103 z "},"[":{"ha":236,"x_min":28,"x_max":208,"o":"m 28 -137 l 28 1088 l 208 1088 l 208 1004 l 113 1004 l 113 -54 l 208 -54 l 208 -137 l 28 -137 z "},"\\":{"ha":508,"x_min":28,"x_max":481,"o":"m 401 3 l 28 972 l 107 972 l 481 3 l 401 3 z "},"]":{"ha":236,"x_min":28,"x_max":208,"o":"m 28 -137 l 28 -54 l 122 -54 l 122 1004 l 28 1004 l 28 1088 l 208 1088 l 208 -137 l 28 -137 z "},"_":{"ha":750,"x_min":28,"x_max":722,"o":"m 28 -289 l 28 -212 l 722 -212 l 722 -289 l 28 -289 z "},"`":{"ha":281,"x_min":28,"x_max":253,"o":"m 158 815 l 28 972 l 124 972 l 253 815 l 158 815 z "},"a":{"ha":622,"x_min":28,"x_max":594,"o":"m 499 301 q 408 324 456 321 q 313 328 361 328 q 244 322 278 328 q 184 300 211 315 q 140 258 157 285 q 124 192 124 232 q 167 104 124 133 q 289 75 211 75 q 408 98 353 75 q 499 179 463 121 l 499 301 m 499 0 l 499 74 q 452 30 478 46 q 398 6 426 14 q 337 -5 369 -3 q 268 -7 304 -7 q 173 6 217 -7 q 97 43 129 18 q 46 105 64 68 q 28 190 28 142 q 49 292 28 249 q 108 363 71 335 q 193 406 144 392 q 296 419 242 419 q 403 415 351 419 q 499 394 454 411 l 499 451 q 449 573 499 531 q 313 615 400 615 q 219 602 257 615 q 143 542 181 589 l 75 600 q 176 677 119 653 q 317 701 233 701 q 429 686 378 701 q 517 640 481 671 q 574 565 554 610 q 594 463 594 521 l 594 0 l 499 0 z "},"b":{"ha":661,"x_min":28,"x_max":633,"o":"m 125 682 q 197 697 161 692 q 271 703 233 703 q 406 683 340 703 q 522 619 471 663 q 603 510 572 576 q 633 350 633 443 q 608 208 633 272 q 535 96 583 143 q 419 22 488 49 q 267 -4 351 -4 q 28 33 149 -4 l 28 972 l 125 972 l 125 682 m 532 349 q 459 549 532 479 q 263 619 386 619 q 194 612 229 619 q 125 593 158 604 l 125 101 q 199 84 161 89 q 275 79 236 79 q 465 153 397 79 q 532 349 532 228 z "},"c":{"ha":644,"x_min":28,"x_max":617,"o":"m 617 107 q 506 26 568 56 q 353 -4 443 -4 q 206 26 268 -4 q 105 105 144 56 q 47 218 65 154 q 28 350 28 282 q 49 489 28 425 q 110 601 69 553 q 211 676 150 649 q 351 703 272 703 q 501 673 438 703 q 610 592 564 643 l 546 528 q 463 594 510 569 q 354 619 415 619 q 249 598 292 619 q 178 540 206 576 q 139 456 151 504 q 126 353 126 407 q 140 252 126 301 q 181 165 153 203 q 253 103 208 126 q 358 79 297 79 q 467 101 415 79 q 560 168 519 122 l 617 107 z "},"d":{"ha":661,"x_min":28,"x_max":633,"o":"m 536 972 l 633 972 l 633 33 q 394 -4 513 -4 q 241 22 308 -4 q 126 96 174 49 q 53 208 78 143 q 28 350 28 272 q 58 510 28 443 q 140 619 89 576 q 256 683 190 663 q 390 703 321 703 q 464 697 428 703 q 536 682 500 692 l 536 972 m 129 349 q 197 153 129 228 q 386 79 264 79 q 463 84 425 79 q 536 101 500 89 l 536 593 q 467 612 503 604 q 399 619 432 619 q 202 549 275 619 q 129 349 129 479 z "},"e":{"ha":678,"x_min":28,"x_max":650,"o":"m 628 101 q 515 22 579 49 q 361 -6 451 -6 q 215 23 278 -6 q 111 100 153 51 q 49 211 69 149 q 28 343 28 274 q 53 502 28 435 q 121 614 78 569 q 221 680 164 658 q 342 701 278 701 q 572 608 494 701 q 647 335 650 514 l 126 335 q 194 147 131 217 q 368 78 258 78 q 479 98 429 78 q 569 163 529 118 l 628 101 m 550 417 q 537 497 550 460 q 499 561 524 535 q 436 603 475 588 q 346 619 397 619 q 255 603 293 619 q 194 563 217 588 q 153 499 172 538 q 129 417 135 461 l 550 417 z "},"f":{"ha":371,"x_min":28,"x_max":343,"o":"m 90 714 q 101 825 90 772 q 142 915 113 878 q 219 967 171 951 q 343 969 268 983 l 331 890 q 307 895 319 893 q 279 896 294 897 q 232 878 250 893 q 204 837 214 863 q 191 778 194 811 q 188 711 188 746 l 188 696 l 310 696 l 310 610 l 188 610 l 188 0 l 90 0 l 90 610 l 28 610 l 28 696 l 90 696 l 90 714 z "},"g":{"ha":660,"x_min":28,"x_max":632,"o":"m 535 15 q 463 0 499 6 q 390 -6 428 -6 q 256 15 321 -6 q 140 78 190 35 q 58 188 89 121 q 28 347 28 254 q 53 489 28 424 q 126 601 78 554 q 241 675 174 649 q 394 701 308 701 q 632 664 511 701 l 632 -31 q 608 -169 632 -112 q 542 -262 585 -226 q 442 -315 500 -299 q 313 -332 383 -332 q 154 -301 222 -332 q 36 -217 86 -269 l 100 -147 q 315 -239 181 -239 q 480 -194 425 -239 q 535 -44 535 -149 l 535 15 m 129 349 q 202 148 129 218 q 399 78 275 78 q 467 85 432 78 q 535 104 501 93 l 535 596 q 462 613 499 608 q 386 618 425 618 q 197 544 264 618 q 129 349 129 469 z "},"h":{"ha":639,"x_min":28,"x_max":611,"o":"m 514 0 l 514 444 q 463 576 514 532 q 335 619 411 619 q 262 603 294 619 q 203 563 229 588 q 159 511 178 539 q 126 460 140 483 l 126 0 l 28 0 l 28 972 l 126 972 l 126 601 q 217 677 160 646 q 356 708 274 708 q 455 692 408 708 q 536 646 501 676 q 591 569 571 615 q 611 464 611 524 l 611 0 l 514 0 z "},"i":{"ha":174,"x_min":28,"x_max":146,"o":"m 39 0 l 39 694 l 136 694 l 136 0 l 39 0 m 28 913 q 44 956 28 939 q 86 972 60 972 q 129 956 113 972 q 146 913 146 939 q 129 870 146 886 q 86 854 113 854 q 44 870 60 854 q 28 913 28 886 z "},"j":{"ha":333,"x_min":28,"x_max":306,"o":"m 28 -206 q 158 -142 118 -194 q 197 8 197 -90 l 197 696 l 294 696 l 294 4 q 281 -100 294 -50 q 237 -190 267 -150 q 160 -256 207 -229 q 49 -289 114 -282 l 28 -206 m 188 913 q 203 956 188 939 q 246 972 219 972 q 289 956 272 972 q 306 913 306 939 q 289 870 306 886 q 246 854 272 854 q 203 870 219 854 q 188 913 188 886 z "},"k":{"ha":617,"x_min":28,"x_max":589,"o":"m 28 0 l 28 971 l 125 971 l 125 0 l 28 0 m 125 358 l 458 694 l 589 694 l 247 361 l 588 0 l 453 0 l 125 358 z "},"l":{"ha":153,"x_min":28,"x_max":125,"o":"m 28 0 l 28 972 l 125 972 l 125 0 l 28 0 z "},"m":{"ha":1122,"x_min":28,"x_max":1094,"o":"m 999 0 l 999 444 q 947 575 999 532 q 818 619 894 618 q 740 603 774 619 q 683 563 707 588 q 641 511 658 539 q 610 460 624 483 l 610 0 l 514 0 l 514 444 q 462 576 514 532 q 333 619 410 619 q 260 603 293 619 q 202 563 228 588 q 158 511 176 539 q 125 460 139 483 l 125 0 l 28 0 l 28 696 l 125 696 l 125 601 q 215 677 158 646 q 354 708 272 708 q 493 676 432 708 q 585 578 554 643 q 626 622 603 599 q 681 664 650 644 q 751 696 713 683 q 839 708 790 708 q 938 693 892 708 q 1019 647 985 678 q 1074 569 1054 615 q 1094 464 1094 524 l 1094 0 l 999 0 z "},"n":{"ha":638,"x_min":28,"x_max":610,"o":"m 514 0 l 514 444 q 462 576 514 532 q 333 619 410 619 q 260 603 293 619 q 202 563 228 588 q 158 511 176 539 q 125 460 139 483 l 125 0 l 28 0 l 28 696 l 125 696 l 125 601 q 215 677 158 646 q 354 708 272 708 q 453 692 407 708 q 535 646 500 676 q 590 569 569 615 q 610 464 610 524 l 610 0 l 514 0 z "},"o":{"ha":704,"x_min":28,"x_max":676,"o":"m 574 344 q 561 455 574 404 q 522 543 549 506 q 453 602 496 581 q 351 624 411 624 q 250 603 292 624 q 182 545 208 582 q 143 457 156 508 q 131 346 131 406 q 143 236 131 288 q 182 147 156 185 q 250 88 208 110 q 351 67 292 67 q 453 88 411 67 q 522 146 496 108 q 561 234 549 183 q 574 344 574 285 m 676 343 q 656 203 676 268 q 596 91 636 139 q 494 16 556 43 q 351 -11 433 -11 q 209 17 269 -11 q 108 94 149 46 q 48 208 68 143 q 28 347 28 274 q 48 487 28 422 q 108 599 68 551 q 209 674 149 647 q 351 701 269 701 q 494 674 433 701 q 596 597 556 646 q 656 483 636 549 q 676 343 676 418 z "},"p":{"ha":668,"x_min":28,"x_max":640,"o":"m 124 -344 l 28 -344 l 28 664 q 265 701 149 701 q 419 675 350 701 q 538 601 489 649 q 614 489 588 554 q 640 347 640 424 q 608 188 640 254 q 524 78 576 121 q 406 15 472 35 q 269 -6 339 -6 q 196 0 232 -6 q 124 15 160 6 l 124 -344 m 531 349 q 463 544 531 469 q 274 618 396 618 q 197 613 235 618 q 124 596 160 608 l 124 104 q 192 85 157 93 q 261 78 228 78 q 458 148 385 78 q 531 349 531 218 z "},"q":{"ha":660,"x_min":28,"x_max":632,"o":"m 536 15 q 464 0 500 6 q 390 -6 428 -6 q 256 15 321 -6 q 140 78 190 35 q 58 188 89 121 q 28 347 28 254 q 53 489 28 424 q 126 601 78 554 q 241 675 174 649 q 394 701 308 701 q 632 664 511 701 l 632 -344 l 536 -344 l 536 15 m 129 349 q 202 148 129 218 q 399 78 275 78 q 467 85 432 78 q 536 104 503 93 l 536 596 q 463 613 500 608 q 386 618 425 618 q 197 544 264 618 q 129 349 129 469 z "},"r":{"ha":476,"x_min":28,"x_max":449,"o":"m 424 604 q 381 615 406 611 q 333 619 356 619 q 260 603 293 619 q 202 563 228 588 q 158 511 176 539 q 125 460 139 483 l 125 0 l 28 0 l 28 694 l 125 694 l 125 601 q 215 677 158 646 q 354 708 272 708 q 403 706 378 708 q 449 697 428 703 l 424 604 z "},"s":{"ha":558,"x_min":28,"x_max":531,"o":"m 458 531 q 383 598 424 576 q 288 619 343 619 q 188 593 217 619 q 160 526 160 567 q 173 479 160 499 q 208 446 186 460 q 258 422 229 432 q 317 401 286 411 q 392 374 354 389 q 460 336 429 360 q 511 278 492 313 q 531 193 531 244 q 511 108 531 146 q 458 45 492 71 q 380 6 425 19 q 283 -7 335 -7 q 143 20 204 -7 q 28 110 82 47 l 100 176 q 288 79 172 79 q 399 108 363 79 q 435 179 435 138 q 422 233 435 211 q 385 269 408 254 q 333 295 363 285 q 269 315 303 306 q 195 340 232 326 q 129 376 158 354 q 81 431 100 397 q 63 515 63 464 q 126 657 63 607 q 292 707 190 707 q 420 682 364 707 q 528 594 476 657 l 460 529 l 458 531 z "},"t":{"ha":371,"x_min":28,"x_max":343,"o":"m 90 611 l 28 611 l 28 697 l 90 697 l 90 861 l 188 861 l 188 697 l 310 697 l 310 611 l 188 611 l 188 260 q 191 192 188 224 q 204 134 194 160 q 232 92 214 108 q 279 75 250 76 q 307 76 294 74 q 331 81 319 78 l 343 1 q 219 3 268 -14 q 142 56 171 19 q 101 146 113 93 q 90 257 90 199 l 90 611 z "},"u":{"ha":656,"x_min":28,"x_max":628,"o":"m 125 694 l 125 253 q 140 176 125 208 q 182 121 156 143 q 243 88 208 99 q 317 76 278 76 q 451 110 400 76 q 529 190 501 143 l 529 694 l 628 694 l 628 0 l 535 0 l 535 78 q 293 -10 464 -10 q 190 6 238 -10 q 106 51 142 21 q 49 128 69 82 q 28 233 28 174 l 28 694 l 125 694 z "},"v":{"ha":731,"x_min":28,"x_max":703,"o":"m 417 0 l 317 0 l 28 693 l 133 693 l 369 107 l 607 693 l 703 693 l 417 0 z "},"w":{"ha":1140,"x_min":28,"x_max":1113,"o":"m 869 0 l 776 0 l 572 561 l 364 0 l 271 0 l 28 693 l 132 693 l 325 121 l 529 693 l 619 693 l 825 122 l 1017 693 l 1113 693 l 869 0 z "},"x":{"ha":696,"x_min":28,"x_max":668,"o":"m 551 0 l 342 289 l 135 0 l 28 0 l 283 353 l 33 694 l 150 694 l 357 413 l 560 694 l 665 694 l 415 351 l 668 0 l 551 0 z "},"z":{"ha":582,"x_min":28,"x_max":554,"o":"m 139 93 l 554 93 l 554 0 l 28 0 l 28 93 l 413 603 l 28 603 l 28 694 l 533 694 l 533 603 l 139 93 z "},"y":{"ha":732,"x_min":28,"x_max":704,"o":"m 101 -204 q 168 -186 131 -199 q 240 -151 206 -174 q 297 -94 274 -128 q 319 -11 319 -60 l 28 694 l 138 694 l 369 111 l 600 694 l 704 694 l 415 -11 l 390 -78 q 354 -154 378 -118 q 296 -218 331 -190 q 217 -264 261 -246 q 122 -287 174 -282 l 101 -204 z "},"{":{"ha":282,"x_min":28,"x_max":254,"o":"m 85 485 q 125 465 111 478 q 145 435 139 451 q 153 399 151 418 q 156 361 154 381 l 156 83 q 157 34 157 60 q 163 -13 157 8 q 185 -49 169 -35 q 232 -62 200 -62 l 254 -64 l 254 -140 l 232 -140 q 125 -103 167 -140 q 78 14 83 -65 l 76 339 q 67 412 74 388 q 28 436 60 436 l 28 533 q 67 558 60 533 q 76 631 74 582 l 78 928 q 125 1044 83 1007 q 232 1082 167 1082 l 254 1082 l 254 1006 l 232 1004 q 183 988 199 1004 q 162 949 168 972 q 156 901 156 926 q 156 858 156 876 l 156 608 q 153 569 154 589 q 145 533 151 550 q 125 504 139 517 q 85 485 111 492 z "},"|":{"ha":132,"x_min":28,"x_max":104,"o":"m 104 -267 l 28 -267 l 28 1067 l 104 1067 l 104 -267 z "},"€":{"ha":729,"x_min":28,"x_max":701,"o":"m 701 136 q 592 31 654 69 q 446 -7 529 -7 q 336 15 385 -7 q 251 74 288 36 q 189 163 214 113 q 151 272 164 214 l 28 272 l 28 354 l 138 354 q 136 388 136 368 q 136 422 136 407 q 137 453 136 440 q 140 485 138 467 l 28 485 l 28 565 l 154 565 q 193 671 168 621 q 255 759 218 721 q 340 819 292 797 q 446 842 388 842 q 592 800 529 842 q 701 692 654 758 l 633 621 q 547 719 593 683 q 449 754 501 754 q 381 738 411 754 q 326 697 350 722 q 283 637 301 671 q 253 565 265 603 l 499 565 l 499 485 l 233 485 q 230 453 231 467 q 229 422 229 440 q 230 388 229 407 q 232 354 231 368 l 499 354 l 499 272 l 247 272 q 276 199 258 233 q 319 138 294 164 q 376 97 344 113 q 449 82 408 82 q 547 113 501 82 q 633 206 593 144 l 701 136 z "},"„":{"ha":407,"x_min":28,"x_max":379,"o":"m 28 -67 l 122 138 l 208 138 l 101 -67 l 28 -67 m 199 -67 l 293 138 l 379 138 l 272 -67 l 199 -67 z "},"…":{"ha":713,"x_min":28,"x_max":685,"o":"m 28 64 q 46 110 28 92 q 92 129 64 129 q 138 110 119 129 q 157 64 157 92 q 138 18 157 36 q 92 0 119 0 q 46 18 64 0 q 28 64 28 36 m 292 64 q 310 110 292 92 q 356 129 328 129 q 402 110 383 129 q 421 64 421 92 q 402 18 421 36 q 356 0 383 0 q 310 18 328 0 q 292 64 292 36 m 556 64 q 574 110 556 92 q 619 129 592 129 q 666 110 647 129 q 685 64 685 92 q 666 18 685 36 q 619 0 647 0 q 574 18 592 0 q 556 64 556 36 z "},"ˆ":{"ha":424,"x_min":28,"x_max":396,"o":"m 28 815 l 157 972 l 267 972 l 396 815 l 288 815 l 211 906 l 136 815 l 28 815 z "},"‹":{"ha":332,"x_min":28,"x_max":304,"o":"m 218 94 l 28 324 l 218 553 l 304 553 l 122 324 l 304 94 l 218 94 z "},"Œ":{"ha":1181,"x_min":28,"x_max":1153,"o":"m 493 0 q 286 39 374 0 q 141 144 199 78 q 56 298 83 210 q 28 485 28 386 q 57 674 28 585 q 144 828 86 763 q 290 933 203 894 q 493 972 378 972 l 1124 972 l 1124 881 l 663 881 l 663 556 l 1081 556 l 1081 465 l 663 465 l 663 92 l 1153 92 l 1153 0 l 493 0 m 561 883 l 500 883 q 340 853 408 883 q 225 771 271 824 q 156 645 179 718 q 132 486 132 572 q 158 322 132 396 q 231 197 183 249 q 347 117 279 144 q 500 89 415 89 l 561 89 l 561 883 z "},"‘":{"ha":221,"x_min":28,"x_max":193,"o":"m 193 972 l 117 694 l 28 694 l 110 972 l 193 972 z "},"’":{"ha":221,"x_min":28,"x_max":193,"o":"m 193 972 l 117 694 l 28 694 l 110 972 l 193 972 z "},"“":{"ha":397,"x_min":28,"x_max":369,"o":"m 193 972 l 117 694 l 28 694 l 110 972 l 193 972 m 369 972 l 293 694 l 204 694 l 286 972 l 369 972 z "},"”":{"ha":397,"x_min":28,"x_max":369,"o":"m 193 972 l 117 694 l 28 694 l 110 972 l 193 972 m 369 972 l 293 694 l 204 694 l 286 972 l 369 972 z "},"•":{"ha":314,"x_min":28,"x_max":286,"o":"m 28 322 q 63 416 28 379 q 156 453 99 453 q 249 416 213 453 q 286 322 286 379 q 249 230 286 265 q 156 194 213 194 q 63 230 99 194 q 28 322 28 265 z "},"–":{"ha":694,"x_min":28,"x_max":667,"o":"m 28 285 l 28 361 l 667 361 l 667 285 l 28 285 z "},"˜":{"ha":503,"x_min":28,"x_max":475,"o":"m 475 892 q 404 849 431 861 q 342 838 378 838 q 294 847 317 838 q 249 866 271 856 q 206 885 228 876 q 161 894 185 894 q 140 893 149 894 q 122 886 132 892 q 101 872 113 881 q 68 849 89 863 l 28 908 q 88 954 58 939 q 163 969 118 969 q 208 963 183 969 q 264 942 232 956 q 311 922 294 928 q 346 915 328 915 q 383 924 365 915 q 435 950 401 932 l 475 892 z "},"—":{"ha":1000,"x_min":28,"x_max":972,"o":"m 28 285 l 28 361 l 972 361 l 972 285 l 28 285 z "},"›":{"ha":325,"x_min":28,"x_max":297,"o":"m 28 94 l 196 324 l 28 553 l 107 553 l 297 324 l 107 94 l 28 94 z "},"œ":{"ha":1139,"x_min":28,"x_max":1111,"o":"m 1088 100 q 983 24 1043 51 q 840 -4 924 -4 q 681 35 744 -4 q 581 138 617 75 q 485 34 547 72 q 328 -4 422 -4 q 197 22 253 -4 q 103 93 140 49 q 47 198 65 138 q 28 328 28 258 q 47 456 28 396 q 103 560 65 517 q 197 630 140 604 q 328 656 253 656 q 481 617 419 656 q 578 515 543 579 q 679 621 615 586 q 822 656 743 656 q 1038 569 964 656 q 1111 317 1111 482 l 624 317 q 641 218 625 263 q 686 141 657 174 q 756 91 715 108 q 847 74 797 74 q 1033 157 958 74 l 1088 100 m 533 324 q 522 426 533 379 q 486 508 511 474 q 422 563 461 543 q 328 583 383 583 q 233 564 272 583 q 169 510 194 544 q 133 429 144 476 q 122 326 122 382 q 133 225 122 272 q 169 143 144 178 q 233 88 194 108 q 328 68 272 68 q 422 87 383 68 q 486 140 461 106 q 522 221 511 174 q 533 324 533 268 m 1015 389 q 1003 465 1015 429 q 966 526 990 500 q 906 568 942 553 q 822 583 869 583 q 740 569 774 583 q 682 528 706 554 q 645 466 658 501 q 626 389 632 431 l 1015 389 z "},"¡":{"ha":174,"x_min":28,"x_max":146,"o":"m 146 732 q 130 689 146 706 q 88 672 114 672 q 44 689 61 672 q 28 732 28 706 q 44 774 28 758 q 88 790 61 790 q 130 774 114 790 q 146 732 146 758 m 36 531 l 140 531 l 140 -146 l 36 -146 l 36 531 z "},"¢":{"ha":628,"x_min":28,"x_max":600,"o":"m 600 119 q 501 35 556 67 q 375 -3 447 4 l 375 -143 l 297 -143 l 297 -1 q 178 40 229 7 q 94 123 128 74 q 44 233 61 172 q 28 358 28 294 q 44 483 28 422 q 94 593 61 544 q 178 675 128 642 q 297 717 229 708 l 297 858 l 375 858 l 375 718 q 501 680 447 711 q 600 597 556 649 l 532 538 q 375 635 461 625 l 375 81 q 458 111 419 88 q 532 179 496 135 l 600 119 m 122 358 q 133 268 122 313 q 165 185 143 224 q 219 120 186 147 q 297 83 251 93 l 297 632 q 219 596 251 622 q 165 532 186 569 q 133 449 143 494 q 122 358 122 404 z "},"£":{"ha":650,"x_min":28,"x_max":622,"o":"m 136 432 q 87 505 108 465 q 65 597 65 544 q 134 768 65 703 q 332 833 203 833 q 492 801 424 833 q 614 697 561 768 l 543 631 q 328 740 472 740 q 203 704 242 740 q 164 610 164 668 q 172 559 164 582 q 193 515 181 536 q 222 473 206 493 q 253 432 238 453 l 531 432 l 531 347 l 304 347 q 315 316 311 332 q 318 281 318 300 q 288 177 318 218 q 213 103 257 136 l 622 103 l 622 0 l 31 0 l 31 81 q 106 117 71 97 q 168 160 142 136 q 210 213 194 185 q 225 275 225 242 q 201 347 225 313 l 28 347 l 28 432 l 136 432 z "},"¥":{"ha":679,"x_min":28,"x_max":651,"o":"m 293 0 l 293 151 l 86 151 l 86 238 l 293 238 l 293 374 l 86 374 l 86 460 l 244 460 l 28 833 l 143 833 l 342 492 l 539 833 l 651 833 l 431 460 l 592 460 l 592 374 l 385 374 l 385 238 l 592 238 l 592 151 l 385 151 l 385 0 l 293 0 z "},"¨":{"ha":397,"x_min":28,"x_max":369,"o":"m 28 913 q 44 956 28 939 q 86 972 60 972 q 129 956 113 972 q 146 913 146 939 q 129 870 146 886 q 86 854 113 854 q 44 870 60 854 q 28 913 28 886 m 251 913 q 267 956 251 939 q 310 972 283 972 q 353 956 336 972 q 369 913 369 939 q 353 870 369 886 q 310 854 336 854 q 267 870 283 854 q 251 913 251 886 z "},"«":{"ha":561,"x_min":28,"x_max":533,"o":"m 218 96 l 28 325 l 218 554 l 311 554 l 129 325 l 311 96 l 218 96 m 440 96 l 250 325 l 440 554 l 533 554 l 351 325 l 533 96 l 440 96 z "},"¯":{"ha":406,"x_min":28,"x_max":378,"o":"m 28 888 l 28 972 l 378 972 l 378 888 l 28 888 z "},"´":{"ha":281,"x_min":28,"x_max":253,"o":"m 28 815 l 157 972 l 253 972 l 122 815 l 28 815 z "},"·":{"ha":185,"x_min":28,"x_max":157,"o":"m 28 60 q 46 106 28 88 q 92 125 64 125 q 138 106 119 125 q 157 60 157 88 q 138 14 157 32 q 92 -4 119 -4 q 46 14 64 -4 q 28 60 28 32 z "},"¸":{"ha":317,"x_min":28,"x_max":289,"o":"m 129 -232 q 76 -224 101 -232 q 28 -206 51 -217 l 51 -143 q 85 -158 67 -151 q 128 -165 104 -165 q 194 -142 167 -165 q 221 -65 221 -119 q 210 15 221 -29 l 276 15 q 285 -25 282 -3 q 289 -71 289 -47 q 246 -190 289 -147 q 129 -232 203 -232 z "},"»":{"ha":569,"x_min":28,"x_max":542,"o":"m 346 558 l 542 324 l 346 89 l 244 89 l 413 324 l 338 428 l 244 558 l 346 558 m 129 558 l 325 324 l 129 89 l 28 89 l 196 324 l 79 488 l 39 543 l 40 543 l 28 558 l 129 558 z "},"¿":{"ha":568,"x_min":28,"x_max":540,"o":"m 363 760 q 347 717 363 733 q 304 700 331 700 q 261 717 278 700 q 244 760 244 733 q 261 802 244 786 q 304 818 278 818 q 347 802 331 818 q 363 760 363 786 m 264 558 l 344 558 l 346 357 q 244 290 286 321 q 176 231 203 260 q 138 170 150 201 q 125 101 125 139 q 174 -17 125 22 q 297 -56 222 -56 q 402 -34 360 -56 q 481 29 444 -12 l 540 -29 q 432 -109 490 -82 q 289 -136 374 -136 q 192 -122 239 -136 q 109 -80 146 -108 q 50 -8 72 -51 q 28 97 28 36 q 49 193 28 150 q 103 272 69 236 q 178 337 136 307 q 264 394 221 367 l 264 558 z "},"Æ":{"ha":1204,"x_min":28,"x_max":1176,"o":"m 661 0 l 661 454 l 411 454 l 144 0 l 28 0 l 599 971 l 1135 971 l 1135 882 l 760 882 l 760 551 l 1097 551 l 1097 454 l 760 454 l 760 89 l 1176 89 l 1176 0 l 661 0 m 663 882 l 468 550 l 661 550 l 663 882 z "},"!":{"ha":178,"x_min":28,"x_max":150,"o":"m 142 269 l 38 269 l 33 969 l 142 969 l 142 269 m 28 60 q 44 105 28 88 q 88 122 61 122 q 133 105 115 122 q 150 60 150 88 q 133 17 150 33 q 88 0 115 0 q 44 17 61 0 q 28 60 28 33 z "},"\"":{"ha":331,"x_min":28,"x_max":303,"o":"m 111 771 l 28 771 l 83 972 l 167 972 l 111 771 m 247 771 l 164 771 l 219 972 l 303 972 l 247 771 z "},"#":{"ha":632,"x_min":28,"x_max":604,"o":"m 318 0 l 354 176 l 208 176 q 201 137 204 157 q 193 97 197 117 q 183 49 189 74 q 174 0 178 24 l 101 0 l 135 176 l 28 176 l 28 253 l 150 253 q 159 297 154 274 q 169 343 164 321 l 190 435 l 28 435 l 28 513 l 206 513 l 222 593 l 242 688 l 314 688 l 281 513 l 425 513 l 450 633 l 458 688 l 533 688 l 497 513 l 604 513 l 604 435 l 482 435 q 472 390 478 413 q 463 343 467 367 q 453 298 458 319 q 444 253 449 276 l 604 253 l 604 176 l 431 176 q 422 131 426 154 q 411 86 417 107 l 394 0 l 318 0 m 410 435 l 265 435 l 244 343 q 234 298 239 319 q 225 253 229 276 l 369 253 l 410 435 z "},"$":{"ha":686,"x_min":28,"x_max":658,"o":"m 658 231 q 590 73 658 131 q 403 4 521 15 l 403 -139 l 313 -139 l 313 3 q 156 40 225 7 q 28 139 86 72 l 104 213 q 194 133 144 164 q 313 96 244 103 l 313 388 q 224 416 267 400 q 146 457 181 432 q 90 520 111 482 q 69 615 69 558 q 82 692 69 654 q 123 760 94 729 q 198 810 151 790 q 313 835 244 831 l 313 972 l 403 972 l 403 835 q 657 703 560 822 l 582 638 q 403 742 521 725 l 403 467 q 496 436 450 453 q 578 394 542 419 q 636 328 614 368 q 658 231 658 289 m 551 217 q 540 272 551 249 q 508 312 528 294 q 461 342 489 329 q 403 364 433 354 l 403 96 q 515 136 478 104 q 551 217 551 168 m 175 628 q 185 579 175 600 q 215 542 196 558 q 258 515 233 526 q 313 493 283 503 l 313 743 q 206 705 238 736 q 175 628 175 674 z "},"&":{"ha":832,"x_min":28,"x_max":804,"o":"m 804 67 q 760 29 782 47 q 718 -7 739 11 l 632 99 q 335 -10 513 -10 q 114 71 203 -10 q 28 269 28 151 q 85 424 28 357 q 260 557 142 492 q 180 674 207 625 q 153 764 153 724 q 219 914 153 856 q 392 975 288 975 q 553 915 489 975 q 615 771 615 857 q 603 705 615 735 q 566 648 590 675 q 505 594 542 621 q 419 539 468 568 l 631 281 q 666 348 650 307 q 683 451 682 389 l 786 451 q 760 312 781 376 q 706 189 740 247 l 804 67 m 361 610 q 470 681 435 649 q 506 769 506 714 q 470 858 506 824 q 385 892 435 892 q 298 859 333 892 q 263 775 263 826 q 280 719 263 749 q 325 651 297 689 l 361 610 m 318 485 q 241 435 274 458 q 188 387 208 411 q 156 336 167 363 q 146 278 146 310 q 200 142 146 197 q 338 82 256 82 q 569 179 475 82 l 318 485 z "},"'":{"ha":139,"x_min":28,"x_max":111,"o":"m 111 771 l 28 771 l 28 972 l 111 972 l 111 771 z "},"(":{"ha":369,"x_min":28,"x_max":342,"o":"m 256 -143 q 174 -31 215 -92 q 101 106 133 31 q 48 271 68 181 q 28 469 28 361 q 48 668 28 578 q 101 833 68 758 q 174 970 133 908 q 256 1082 215 1032 l 342 1082 q 253 956 294 1022 q 181 814 211 889 q 133 653 150 739 q 115 469 115 567 q 133 285 115 371 q 181 125 150 200 q 253 -17 211 50 q 342 -143 294 -83 l 256 -143 z "},")":{"ha":369,"x_min":28,"x_max":342,"o":"m 28 -143 q 117 -17 75 -83 q 189 125 158 50 q 237 285 219 200 q 254 469 254 371 q 237 653 254 567 q 189 814 219 739 q 117 956 158 889 q 28 1082 75 1022 l 114 1082 q 195 970 154 1032 q 269 833 236 908 q 322 668 301 758 q 342 469 342 578 q 322 271 342 361 q 269 106 301 181 q 195 -31 236 31 q 114 -143 154 -92 l 28 -143 z "},"*":{"ha":521,"x_min":28,"x_max":493,"o":"m 313 711 l 431 560 l 379 521 l 260 669 l 143 522 l 88 560 l 196 715 l 28 778 l 49 839 l 224 781 l 224 972 l 293 972 l 294 781 l 474 838 l 493 776 l 313 711 z "},"+":{"ha":667,"x_min":28,"x_max":639,"o":"m 294 46 l 294 313 l 28 313 l 28 389 l 294 389 l 294 657 l 371 657 l 371 389 l 639 389 l 639 313 l 371 313 l 371 46 l 294 46 z "},",":{"ha":235,"x_min":28,"x_max":207,"o":"m 28 -201 l 118 139 l 207 139 l 111 -201 l 28 -201 z "},"-":{"ha":333,"x_min":28,"x_max":306,"o":"m 28 308 l 28 390 l 306 390 l 306 308 l 28 308 z "},".":{"ha":190,"x_min":28,"x_max":163,"o":"m 28 67 q 47 115 28 96 q 94 135 65 135 q 143 115 124 135 q 163 67 163 96 q 143 19 163 38 q 94 0 124 0 q 47 19 65 0 q 28 67 28 38 z "},"/":{"ha":508,"x_min":28,"x_max":481,"o":"m 28 0 l 401 972 l 481 972 l 107 0 l 28 0 z "},":":{"ha":190,"x_min":28,"x_max":163,"o":"m 28 67 q 47 115 28 96 q 94 135 65 135 q 143 115 124 135 q 163 67 163 96 q 143 19 163 38 q 94 0 124 0 q 47 19 65 0 q 28 67 28 38 m 28 625 q 47 674 28 654 q 94 693 65 693 q 143 674 124 693 q 163 625 163 654 q 143 577 163 596 q 94 558 124 558 q 47 577 65 558 q 28 625 28 596 z "},";":{"ha":254,"x_min":28,"x_max":226,"o":"m 28 -212 l 122 128 l 211 128 l 115 -212 l 28 -212 m 92 625 q 110 674 92 654 q 158 693 129 693 q 207 674 188 693 q 226 625 226 654 q 207 577 226 596 q 158 558 188 558 q 110 577 129 558 q 92 625 92 596 z "},"=":{"ha":629,"x_min":28,"x_max":601,"o":"m 28 196 l 28 285 l 601 285 l 601 196 l 28 196 m 28 465 l 28 558 l 601 558 l 601 465 l 28 465 z "},"?":{"ha":565,"x_min":28,"x_max":538,"o":"m 201 67 q 220 112 201 93 q 268 131 239 131 q 313 112 294 131 q 332 67 332 93 q 313 19 332 38 q 268 0 294 0 q 220 19 239 0 q 201 67 201 38 m 313 217 l 222 217 l 218 503 q 317 566 276 539 q 384 619 358 593 q 422 672 410 644 q 435 735 435 699 q 389 843 435 807 q 275 879 343 879 q 176 857 217 879 q 100 790 136 835 l 28 861 q 140 944 81 917 q 283 972 199 972 q 379 958 333 972 q 460 914 425 943 q 517 840 496 885 q 538 735 538 796 q 517 649 538 690 q 463 569 496 607 q 390 499 429 532 q 313 442 350 467 l 313 217 z "},"@":{"ha":949,"x_min":28,"x_max":921,"o":"m 600 451 q 534 473 568 465 q 465 481 500 481 q 417 476 442 481 q 374 460 393 471 q 342 431 354 449 q 331 388 331 414 q 362 322 331 346 q 447 297 393 297 q 530 322 488 297 q 600 382 572 346 l 600 451 m 688 339 q 696 311 688 321 q 726 301 704 301 q 763 311 744 301 q 796 344 782 321 q 819 408 810 368 q 828 511 828 449 q 802 673 828 603 q 730 791 776 743 q 617 864 683 839 q 472 889 551 889 q 318 856 385 889 q 206 768 251 824 q 139 639 161 713 q 117 483 117 565 q 139 324 117 397 q 206 196 161 250 q 317 111 250 142 q 476 81 385 81 q 637 104 568 81 q 764 188 706 128 l 808 122 q 659 30 743 60 q 472 0 575 0 q 281 36 364 0 q 141 137 197 72 q 56 290 85 201 q 28 485 28 379 q 56 667 28 581 q 141 821 85 754 q 280 927 197 888 q 472 967 363 967 q 655 935 572 967 q 797 844 738 903 q 888 703 856 786 q 921 517 921 619 q 903 386 921 440 q 858 297 886 332 q 795 244 831 261 q 724 228 760 228 q 649 244 679 228 q 608 292 619 261 q 528 237 574 256 q 435 218 482 218 q 298 263 351 218 q 244 386 244 308 q 261 463 244 431 q 306 517 278 496 q 372 548 335 538 q 451 558 410 558 q 530 551 490 558 q 600 535 569 544 l 600 585 q 565 668 600 639 q 465 697 531 697 q 394 682 429 697 q 326 626 358 667 l 268 692 q 353 758 303 735 q 469 781 403 781 q 628 733 568 781 q 688 594 688 686 l 688 339 z "},"˝":{"ha":449,"x_min":69,"x_max":421,"o":"m 69 767 l 164 971 l 250 971 l 143 767 l 69 767 m 240 767 l 335 971 l 421 971 l 314 767 l 240 767 z "},"˚":{"ha":351,"x_min":28,"x_max":324,"o":"m 240 819 q 225 869 240 849 q 176 890 210 890 q 128 869 143 890 q 114 819 114 849 q 128 772 114 793 q 176 750 143 750 q 225 771 210 750 q 240 819 240 792 m 324 819 q 285 717 324 757 q 176 678 247 678 q 67 719 106 678 q 28 819 28 760 q 67 922 28 882 q 176 961 106 961 q 285 920 247 961 q 324 819 324 879 z "},"A":{"ha":858,"x_min":28,"x_max":831,"o":"m 610 294 l 249 294 l 144 0 l 28 0 l 374 972 l 485 972 l 831 0 l 714 0 l 610 294 m 285 397 l 572 397 l 429 804 l 285 397 z "},"B":{"ha":751,"x_min":28,"x_max":724,"o":"m 28 0 l 28 972 l 408 972 q 510 951 463 972 q 592 895 557 931 q 648 813 628 860 q 668 711 668 765 q 644 603 668 653 q 581 518 621 554 q 684 418 644 482 q 724 276 724 354 q 701 168 724 218 q 642 81 679 118 q 553 22 604 43 q 444 0 503 0 l 28 0 m 131 103 l 446 103 q 515 118 482 103 q 572 159 547 133 q 610 218 596 185 q 624 288 624 251 q 610 354 624 324 q 572 406 596 385 q 515 440 547 428 q 446 453 482 453 l 131 453 l 131 103 m 131 869 l 131 556 l 410 556 q 472 568 443 556 q 521 601 500 581 q 554 651 542 622 q 567 713 567 679 q 554 774 567 746 q 521 824 542 803 q 472 857 500 844 q 410 869 443 869 l 131 869 z "},"C":{"ha":829,"x_min":28,"x_max":801,"o":"m 28 492 q 53 676 28 588 q 133 834 79 765 q 267 944 186 903 q 458 985 347 985 q 658 943 575 985 q 801 829 740 901 l 728 764 q 606 858 671 835 q 461 882 540 882 q 313 849 375 882 q 210 763 251 817 q 150 638 169 708 q 131 490 131 567 q 150 344 131 415 q 210 217 169 272 q 313 129 251 163 q 461 96 375 96 q 606 122 540 96 q 728 218 671 147 l 801 153 q 658 38 740 81 q 458 -6 575 -6 q 267 37 347 -6 q 133 149 186 79 q 53 308 79 218 q 28 492 28 397 z "},"D":{"ha":875,"x_min":28,"x_max":847,"o":"m 847 489 q 818 299 847 388 q 731 143 789 210 q 585 38 672 76 q 381 0 497 0 l 28 0 l 28 972 l 381 972 q 588 933 500 972 q 734 828 676 894 q 819 675 792 763 q 847 489 847 588 m 742 488 q 716 649 742 578 q 642 769 690 719 q 526 844 594 818 q 374 869 458 869 l 131 869 l 131 103 l 374 103 q 534 131 465 103 q 649 208 603 158 q 719 329 696 258 q 742 488 742 400 z "},"}":{"ha":282,"x_min":28,"x_max":254,"o":"m 197 485 q 157 504 171 492 q 137 533 143 517 q 129 569 131 550 q 126 608 128 589 l 126 858 q 126 901 126 876 q 120 949 126 926 q 99 988 114 972 q 50 1004 83 1004 l 28 1006 l 28 1082 l 50 1082 q 157 1044 115 1082 q 204 928 199 1007 l 206 631 q 215 558 208 582 q 254 533 222 533 l 254 436 q 215 412 222 436 q 206 339 208 388 l 204 14 q 157 -103 199 -65 q 50 -140 115 -140 l 28 -140 l 28 -64 l 50 -62 q 97 -49 82 -62 q 119 -13 113 -35 q 125 34 125 8 q 126 83 125 60 l 126 361 q 129 399 128 381 q 137 435 131 418 q 157 465 143 451 q 197 485 171 478 z "},">":{"ha":353,"x_min":28,"x_max":325,"o":"m 28 90 l 210 324 q 165 379 188 351 q 121 433 142 407 l 28 557 l 131 557 l 325 324 l 131 90 l 28 90 z "},"<":{"ha":353,"x_min":28,"x_max":325,"o":"m 222 90 l 28 324 l 222 557 l 325 557 l 143 324 l 161 299 l 192 261 q 260 176 224 222 q 325 90 297 131 l 222 90 z "},"™":{"ha":1126,"x_min":28,"x_max":1099,"o":"m 288 881 l 288 285 l 183 285 l 183 881 l 28 881 l 28 972 l 440 972 l 440 881 l 288 881 m 996 288 l 996 760 l 794 381 l 593 751 l 593 288 l 490 288 l 490 972 l 579 972 l 794 575 l 1013 972 l 1099 972 l 1099 288 l 996 288 z "},"¦":{"ha":128,"x_min":28,"x_max":100,"o":"m 28 631 l 28 975 l 100 975 l 100 631 l 28 631 m 28 -1 l 28 343 l 100 343 l 100 -1 l 28 -1 z "},"§":{"ha":533,"x_min":28,"x_max":506,"o":"m 506 482 q 477 394 506 435 q 408 332 449 353 q 465 271 449 307 q 482 190 482 235 q 463 104 482 142 q 411 42 443 67 q 337 3 379 17 q 247 -10 294 -10 q 135 1 188 -10 q 32 36 83 11 l 65 103 q 119 83 96 90 q 164 70 143 75 q 205 63 185 65 q 250 61 225 61 q 358 90 318 61 q 397 189 397 119 q 382 244 397 222 q 342 283 367 267 q 285 310 317 299 q 219 332 253 321 q 149 355 183 343 q 88 385 115 367 q 44 431 61 404 q 28 500 28 458 q 52 600 28 563 q 121 661 76 638 q 70 715 89 681 q 51 790 51 749 q 72 878 51 842 q 125 938 92 915 q 201 972 158 961 q 288 982 243 982 q 385 967 340 982 q 478 932 429 951 l 450 860 q 372 901 406 888 q 289 915 339 915 q 229 909 257 915 q 181 889 201 903 q 148 851 160 875 q 136 794 136 828 q 149 758 136 774 q 181 731 161 743 q 228 710 201 719 q 285 690 256 700 q 360 663 321 679 q 431 624 399 647 q 485 565 464 600 q 506 482 506 531 m 421 481 q 409 531 421 511 q 377 565 397 551 q 330 587 357 578 q 274 604 303 596 l 217 619 q 142 587 171 613 q 113 504 113 561 q 125 466 113 482 q 158 439 138 450 q 205 419 179 428 q 257 401 231 410 q 290 391 274 396 q 322 379 307 386 q 392 419 363 394 q 421 481 421 444 z "},"©":{"ha":1017,"x_min":28,"x_max":989,"o":"m 907 490 q 877 642 907 569 q 794 772 847 715 q 667 863 740 829 q 507 897 594 897 q 349 863 421 897 q 224 773 276 829 q 141 643 171 717 q 111 490 111 569 q 141 338 111 411 q 224 207 171 264 q 349 116 276 150 q 507 82 421 82 q 667 116 594 82 q 794 206 740 150 q 877 336 847 263 q 907 490 907 410 m 989 492 q 956 307 989 394 q 861 153 924 219 q 709 47 799 86 q 507 8 619 8 q 306 47 394 8 q 155 153 217 86 q 60 307 93 219 q 28 492 28 394 q 60 676 28 589 q 155 828 93 763 q 306 932 217 893 q 507 971 394 971 q 709 932 619 971 q 861 828 799 893 q 956 676 924 763 q 989 492 989 589 m 735 278 q 636 206 692 232 q 501 179 581 179 q 370 206 426 179 q 277 276 314 232 q 222 376 240 319 q 203 492 203 432 q 223 615 203 558 q 281 714 243 672 q 374 780 319 756 q 500 804 429 804 q 631 778 575 804 q 728 706 688 751 l 672 650 q 598 708 640 686 q 503 731 556 731 q 408 712 449 731 q 342 660 368 693 q 303 585 315 628 q 290 494 290 542 q 303 406 290 449 q 344 328 317 363 q 411 274 371 294 q 506 253 451 253 q 602 272 556 253 q 685 332 649 292 l 735 278 z "},"®":{"ha":1017,"x_min":28,"x_max":989,"o":"m 636 613 q 601 676 633 657 q 517 694 569 694 l 415 694 l 415 526 l 510 526 q 602 553 567 526 q 636 613 638 581 m 644 204 l 521 433 l 415 433 l 415 204 l 318 204 l 318 783 l 519 783 q 599 773 561 783 q 665 742 636 763 q 710 688 693 721 q 726 611 726 656 q 717 547 726 574 q 692 502 708 521 q 655 472 676 483 q 610 457 633 461 q 644 389 626 422 q 683 318 663 356 l 749 204 l 644 204 m 908 490 q 878 642 908 569 q 795 772 849 715 q 668 863 742 829 q 507 897 594 897 q 348 863 421 897 q 222 773 275 829 q 140 643 169 717 q 110 490 110 569 q 140 338 110 411 q 222 207 169 264 q 348 116 275 150 q 507 82 421 82 q 668 116 594 82 q 795 206 742 150 q 878 336 849 263 q 908 490 908 410 m 989 492 q 956 307 989 394 q 861 153 924 219 q 709 47 799 86 q 507 8 619 8 q 306 47 394 8 q 155 153 217 86 q 60 307 93 219 q 28 492 28 394 q 60 676 28 589 q 155 828 93 763 q 306 932 217 893 q 507 971 394 971 q 709 932 619 971 q 861 828 799 893 q 956 676 924 763 q 989 492 989 589 z "},"Ç":{"ha":829,"x_min":28,"x_max":801,"o":"m 369 -232 q 317 -224 342 -232 q 268 -206 292 -217 l 292 -143 q 326 -158 307 -151 q 368 -165 344 -165 q 434 -142 407 -165 q 461 -65 461 -119 q 454 -6 461 -37 q 267 36 346 -4 q 133 149 186 79 q 53 308 79 218 q 28 492 28 397 q 53 676 28 588 q 133 834 79 765 q 267 944 186 903 q 458 985 347 985 q 658 943 575 985 q 801 829 740 901 l 728 764 q 606 858 671 835 q 461 882 540 882 q 313 849 375 882 q 210 763 251 817 q 150 638 169 708 q 131 490 131 567 q 150 344 131 415 q 210 217 169 272 q 313 129 251 163 q 461 96 375 96 q 606 122 540 96 q 728 218 671 147 l 801 153 q 657 38 740 81 q 521 -3 599 7 q 525 -25 524 -12 q 529 -71 529 -47 q 486 -190 529 -147 q 369 -232 443 -232 z "},"÷":{"ha":190,"x_min":28,"x_max":163,"o":"m 28 67 q 47 115 28 96 q 94 135 65 135 q 143 115 124 135 q 163 67 163 96 q 143 19 163 38 q 94 0 124 0 q 47 19 65 0 q 28 67 28 38 m 28 625 q 47 674 28 654 q 94 693 65 693 q 143 674 124 693 q 163 625 163 654 q 143 577 163 596 q 94 558 124 558 q 47 577 65 558 q 28 625 28 596 z "},"ø":{"ha":704,"x_min":28,"x_max":676,"o":"m 125 -139 l 189 28 q 67 157 107 72 q 28 347 28 242 q 48 487 28 422 q 108 599 68 551 q 209 674 149 647 q 351 701 269 701 q 443 690 399 701 l 499 833 l 578 833 l 513 664 q 636 535 596 619 q 676 343 676 450 q 656 203 676 268 q 596 91 636 139 q 494 16 556 43 q 351 -11 433 -11 q 302 -8 325 -11 q 257 0 279 -6 l 204 -139 l 125 -139 m 574 344 q 552 486 574 424 q 482 585 531 549 l 286 74 q 317 68 301 69 q 351 67 332 67 q 453 88 411 67 q 522 146 496 108 q 561 234 549 183 q 574 344 574 285 m 131 346 q 151 206 131 268 q 219 107 172 143 l 415 615 q 351 624 386 624 q 250 603 292 624 q 182 545 208 582 q 143 457 156 508 q 131 346 131 406 z "},"ß":{"ha":592,"x_min":28,"x_max":564,"o":"m 564 251 q 531 103 564 161 q 447 10 499 44 q 329 -38 394 -25 q 200 -51 264 -51 l 200 35 q 296 47 247 35 q 385 84 344 58 q 451 152 425 110 q 476 256 476 194 q 442 358 476 319 q 360 420 407 397 q 268 453 314 443 q 200 468 222 463 l 200 557 q 335 656 297 610 q 372 754 372 703 q 360 813 372 789 q 328 853 347 838 q 286 875 310 868 q 242 882 263 882 q 144 840 172 882 q 117 694 117 797 l 117 0 l 28 0 l 28 678 q 38 801 28 747 q 71 891 47 854 q 136 947 94 928 q 242 965 178 965 q 333 949 292 965 q 403 906 374 933 q 448 838 432 878 q 464 750 464 797 q 431 633 464 689 q 311 524 399 576 q 460 467 418 493 q 533 392 501 442 q 564 251 564 342 z "},"×":{"ha":544,"x_min":28,"x_max":517,"o":"m 81 596 l 271 408 l 458 599 l 513 544 l 325 354 l 517 167 l 463 113 l 272 300 l 83 110 l 29 163 l 217 354 l 28 542 l 81 596 z "},"Ø":{"ha":961,"x_min":28,"x_max":933,"o":"m 933 492 q 905 304 933 394 q 819 145 876 214 q 677 35 763 76 q 479 -7 592 -7 q 379 1 426 -7 l 336 -139 l 258 -139 l 308 22 q 282 35 294 28 q 142 145 199 76 q 56 304 85 214 q 28 492 28 394 q 56 678 28 589 q 142 835 85 767 q 283 944 199 903 q 479 985 367 985 q 599 971 543 985 l 642 1111 l 719 1111 l 669 947 q 676 943 672 946 q 819 835 763 903 q 905 678 876 767 q 933 492 933 589 m 479 882 q 328 851 393 882 q 220 766 264 819 q 154 641 176 713 q 132 490 132 569 q 154 340 132 411 q 220 214 176 268 q 328 128 264 160 q 339 122 333 125 l 568 872 q 479 882 526 882 m 829 490 q 807 640 829 569 q 740 764 785 711 q 638 847 699 815 l 410 101 q 479 96 442 96 q 632 127 567 96 q 741 213 697 158 q 807 338 785 267 q 829 490 829 410 z "},"°":{"ha":344,"x_min":28,"x_max":317,"o":"m 244 835 q 228 890 244 867 q 172 914 213 914 q 119 891 133 914 q 104 835 104 868 q 119 782 104 803 q 172 761 133 761 q 228 781 213 761 q 244 835 244 801 m 317 835 q 280 738 317 778 q 172 697 243 697 q 67 738 106 697 q 28 835 28 779 q 67 933 28 894 q 172 972 106 972 q 280 933 243 972 q 317 835 317 893 z "},"µ":{"ha":524,"x_min":28,"x_max":496,"o":"m 413 0 l 403 78 q 377 51 392 65 q 342 24 363 36 q 298 3 322 11 q 244 -6 274 -6 q 175 6 208 -6 q 114 35 142 17 l 114 -233 l 28 -233 l 28 643 l 114 643 l 114 263 q 119 188 114 222 q 138 128 124 153 q 178 88 153 103 q 246 74 204 74 q 294 88 271 74 q 336 122 317 101 q 369 167 356 143 q 392 213 383 192 l 392 643 l 482 643 l 482 151 q 485 84 482 119 q 496 0 489 49 l 413 0 z "},"ª":{"ha":508,"x_min":26,"x_max":479,"o":"m 404 656 q 332 675 370 672 q 255 677 294 677 q 201 672 228 677 q 153 655 174 667 q 118 622 131 643 q 104 569 104 601 q 139 499 104 522 q 236 475 174 475 q 331 494 287 475 q 404 559 375 512 l 404 656 m 404 415 l 404 474 q 367 439 387 452 q 323 420 346 426 q 275 411 301 413 q 220 410 249 410 q 144 420 179 410 q 83 450 109 430 q 42 499 57 470 q 28 567 28 529 q 45 649 28 614 q 92 706 62 683 q 160 740 121 729 q 242 751 199 751 q 327 747 286 751 q 404 731 368 744 l 404 776 q 365 874 404 840 q 255 907 325 907 q 180 897 211 907 q 120 849 150 886 l 65 895 q 146 957 101 937 q 259 976 192 976 q 348 964 307 976 q 419 927 390 952 q 464 867 448 903 q 481 785 481 832 l 481 415 l 404 415 z "},"±":{"ha":667,"x_min":28,"x_max":639,"o":"m 286 143 l 286 326 l 28 326 l 28 417 l 286 417 l 286 601 l 376 601 l 376 417 l 639 417 l 639 326 l 376 326 l 376 143 l 286 143 m 28 0 l 28 76 l 639 76 l 639 0 l 28 0 z "},"¬":{"ha":649,"x_min":28,"x_max":621,"o":"m 542 160 l 542 407 l 28 407 l 28 489 l 621 489 l 621 160 l 542 160 z "},"−":{"ha":667,"x_min":28,"x_max":639,"o":"m 28 313 l 28 389 l 639 389 l 639 313 l 28 313 z "},"¶":{"ha":564,"x_min":28,"x_max":536,"o":"m 444 -6 l 444 875 l 346 875 l 346 -6 l 254 -6 l 254 542 q 144 565 188 544 q 74 615 100 585 q 38 681 49 644 q 28 751 28 717 q 37 826 28 788 q 73 897 46 865 q 149 950 100 929 q 279 971 199 971 l 536 971 l 536 -6 l 444 -6 z "},"⁄":{"ha":431,"x_min":28,"x_max":403,"o":"m 106 0 l 28 0 l 325 972 l 403 972 l 106 0 z "},"‚":{"ha":236,"x_min":28,"x_max":208,"o":"m 28 -67 l 122 138 l 208 138 l 101 -67 l 28 -67 z "},"˛":{"ha":139,"x_min":0,"x_max":0,"o":""},"ı":{"ha":174,"x_min":43,"x_max":140,"o":"m 43 0 l 43 694 l 140 694 l 140 0 l 43 0 z "},"^":{"ha":396,"x_min":28,"x_max":368,"o":"m 28 815 l 157 972 l 239 972 l 368 815 l 274 815 l 197 906 l 122 815 l 28 815 z "},"G":{"ha":843,"x_min":28,"x_max":815,"o":"m 815 153 q 672 38 754 81 q 472 -6 589 -6 q 278 37 361 -6 q 140 149 196 79 q 56 308 83 218 q 28 492 28 397 q 53 676 28 588 q 133 834 79 765 q 267 944 186 903 q 458 985 347 985 q 658 943 575 985 q 801 829 740 901 l 728 764 q 606 858 671 835 q 461 882 540 882 q 313 849 375 882 q 210 763 251 817 q 150 638 169 708 q 131 490 131 567 q 152 344 131 415 q 217 217 174 272 q 325 129 261 163 q 475 96 389 96 q 602 115 543 96 q 713 185 661 133 l 713 454 l 436 454 l 436 557 l 815 557 l 815 153 z "},"E":{"ha":639,"x_min":28,"x_max":611,"o":"m 28 0 l 28 972 l 607 972 l 607 869 l 131 869 l 131 557 l 564 557 l 564 454 l 131 454 l 131 103 l 611 103 l 611 0 l 28 0 z "},"F":{"ha":635,"x_min":28,"x_max":607,"o":"m 28 0 l 28 972 l 607 972 l 607 869 l 131 869 l 131 557 l 564 557 l 564 454 l 131 454 l 131 0 l 28 0 z "},"J":{"ha":607,"x_min":28,"x_max":579,"o":"m 579 972 l 579 286 q 507 64 579 139 q 297 -11 435 -11 q 217 -3 253 -11 q 150 22 182 4 q 88 67 118 39 q 28 136 58 96 l 106 208 q 190 122 142 153 q 314 92 238 92 q 440 145 403 92 q 476 288 476 199 l 476 972 l 579 972 z "},"H":{"ha":742,"x_min":28,"x_max":714,"o":"m 611 0 l 611 454 l 131 454 l 131 0 l 28 0 l 28 972 l 131 972 l 131 557 l 611 557 l 611 972 l 714 972 l 714 0 l 611 0 z "},"I":{"ha":158,"x_min":28,"x_max":131,"o":"m 28 0 l 28 972 l 131 972 l 131 0 l 28 0 z "},"M":{"ha":921,"x_min":28,"x_max":893,"o":"m 792 0 l 792 769 l 461 231 l 126 758 l 126 0 l 28 0 l 28 972 l 107 972 l 461 407 l 815 972 l 893 972 l 893 0 l 792 0 z "},"K":{"ha":765,"x_min":28,"x_max":738,"o":"m 28 0 l 28 972 l 131 972 l 131 500 l 600 972 l 735 972 l 263 500 l 738 0 l 594 0 l 131 497 l 131 0 l 28 0 z "},"L":{"ha":638,"x_min":28,"x_max":610,"o":"m 28 0 l 28 972 l 131 972 l 131 103 l 610 103 l 610 0 l 28 0 z "},"%":{"ha":675,"x_min":28,"x_max":647,"o":"m 579 136 q 562 194 579 169 q 504 218 544 218 q 449 194 464 218 q 433 136 433 171 q 449 81 433 104 q 504 58 464 58 q 562 81 544 58 q 579 136 579 103 m 647 136 q 611 40 647 79 q 504 0 575 0 q 399 40 438 0 q 361 136 361 81 q 399 233 361 194 q 504 272 438 272 q 611 233 575 272 q 647 136 647 194 m 124 0 l 28 0 l 544 969 l 640 969 l 124 0 m 251 833 q 234 891 251 867 q 176 915 217 915 q 119 892 136 915 q 103 833 103 868 q 119 778 103 801 q 176 756 136 756 q 234 777 217 756 q 251 833 251 799 m 319 833 q 283 737 319 776 q 176 697 247 697 q 72 738 110 697 q 33 833 33 778 q 72 931 33 892 q 176 969 110 969 q 283 931 247 969 q 319 833 319 892 z "},"þ":{"ha":661,"x_min":28,"x_max":633,"o":"m 125 682 q 197 697 161 692 q 271 703 233 703 q 406 683 340 703 q 522 619 471 663 q 603 510 572 576 q 633 350 633 443 q 608 208 633 272 q 535 96 583 143 q 419 22 488 49 q 267 -4 351 -4 q 125 8 197 -4 l 125 -293 l 29 -293 l 29 32 q 28 33 29 32 l 28 1042 l 125 1042 l 125 682 m 532 349 q 459 549 532 479 q 263 619 386 619 q 194 612 229 619 q 125 593 158 604 l 125 101 q 199 84 161 89 q 275 79 236 79 q 465 153 397 79 q 532 349 532 228 z "},"˘":{"ha":336,"x_min":28,"x_max":308,"o":"m 168 888 q 228 913 210 888 q 249 971 247 938 l 308 971 q 270 880 306 918 q 168 842 235 842 q 65 879 101 842 q 28 971 29 917 l 89 971 q 108 912 90 936 q 168 888 126 888 z "},"ˇ":{"ha":415,"x_min":28,"x_max":388,"o":"m 132 972 l 207 882 l 283 972 l 388 972 l 258 815 l 157 815 l 28 972 l 132 972 z "},"˙":{"ha":185,"x_min":28,"x_max":157,"o":"m 28 904 q 46 951 28 932 q 92 969 64 969 q 138 951 119 969 q 157 904 157 932 q 138 858 157 876 q 92 840 119 840 q 46 858 64 840 q 28 904 28 876 z "}," ":{"ha":350,"x_min":0,"x_max":0,"o":""},"N":{"ha":836,"x_min":28,"x_max":808,"o":"m 722 0 l 128 788 l 128 0 l 28 0 l 28 972 l 111 972 l 708 185 l 708 972 l 808 972 l 808 0 l 722 0 z "},"Ž":{"ha":763,"x_min":28,"x_max":735,"o":"m 167 103 l 735 103 l 735 0 l 28 0 l 28 103 l 561 869 l 57 869 l 57 972 l 700 972 l 700 871 l 167 103 m 293 1253 l 368 1163 l 444 1253 l 549 1253 l 419 1096 l 318 1096 l 189 1253 l 293 1253 z "},"ž":{"ha":582,"x_min":28,"x_max":554,"o":"m 139 93 l 554 93 l 554 0 l 28 0 l 28 93 l 413 603 l 28 603 l 28 694 l 533 694 l 533 603 l 139 93 m 203 972 l 278 882 l 354 972 l 458 972 l 329 815 l 228 815 l 99 972 l 203 972 z "},"¹":{"ha":111,"x_min":26,"x_max":82,"o":"m 27 417 l 27 952 l 83 972 l 83 417 l 27 417 z "},"º":{"ha":572,"x_min":26,"x_max":543,"o":"m 462 695 q 453 783 462 742 q 422 853 443 823 q 367 900 401 883 q 285 917 333 917 q 205 900 238 917 q 150 854 172 884 q 120 784 129 825 q 110 696 110 743 q 120 609 110 649 q 150 538 129 568 q 205 491 172 508 q 285 474 238 474 q 367 490 333 474 q 422 537 401 507 q 453 607 443 567 q 462 695 462 647 m 544 694 q 528 583 544 634 q 480 493 512 531 q 399 434 448 455 q 285 412 351 412 q 172 435 220 412 q 92 496 124 457 q 44 587 60 535 q 28 697 28 638 q 44 808 28 757 q 92 897 60 859 q 172 957 124 936 q 285 979 220 979 q 399 957 351 979 q 480 896 448 934 q 528 805 512 857 q 544 694 544 753 z "},"¼":{"ha":674,"x_min":28,"x_max":646,"o":"m 28 0 l 401 972 l 481 972 l 107 0 l 28 0 m 541 1 l 541 148 l 273 148 l 273 191 l 546 555 l 596 555 l 596 205 l 646 205 l 646 148 l 596 148 l 596 1 l 541 1 m 541 205 l 540 454 l 350 205 l 541 205 m 56 417 l 56 952 l 112 972 l 112 417 l 56 417 z "},"½":{"ha":671,"x_min":28,"x_max":643,"o":"m 319 57 l 481 233 q 511 269 496 250 q 541 309 527 288 q 563 350 554 330 q 572 392 572 371 q 564 434 572 414 q 543 468 557 454 q 509 491 529 483 q 463 500 488 500 q 396 481 423 500 q 359 428 370 462 l 313 466 q 374 531 334 507 q 463 556 414 556 q 531 543 501 556 q 583 509 562 531 q 615 456 604 486 q 627 389 627 426 q 617 339 627 364 q 594 290 608 314 q 562 244 579 266 q 528 205 544 223 l 454 123 l 390 53 l 644 53 l 644 0 l 319 0 l 319 57 m 28 0 l 401 972 l 481 972 l 107 0 l 28 0 m 56 417 l 56 952 l 112 972 l 112 417 l 56 417 z "},"¾":{"ha":854,"x_min":28,"x_max":826,"o":"m 381 574 q 366 505 381 535 q 324 456 350 476 q 263 426 298 436 q 190 416 228 416 q 101 432 138 416 q 28 482 63 447 l 73 519 q 125 478 95 490 q 190 465 156 465 q 288 494 252 465 q 323 574 323 523 q 281 657 323 629 q 161 685 238 685 l 143 685 l 143 739 l 163 739 q 217 746 192 739 q 259 764 241 752 q 288 795 277 776 q 298 838 298 814 q 289 874 298 857 q 266 903 281 890 q 231 922 251 915 q 188 928 211 928 q 122 916 148 928 q 75 878 96 904 l 34 913 q 100 962 65 946 q 187 977 135 977 q 254 969 223 977 q 308 943 285 960 q 344 900 330 926 q 357 839 357 874 q 332 761 357 793 q 268 716 308 730 q 349 668 318 703 q 381 574 381 633 m 208 0 l 582 972 l 661 972 l 288 0 l 208 0 m 721 1 l 721 148 l 453 148 l 453 191 l 727 555 l 777 555 l 777 205 l 827 205 l 827 148 l 777 148 l 777 1 l 721 1 m 721 205 l 720 454 l 531 205 l 721 205 z "},"~":{"ha":503,"x_min":28,"x_max":475,"o":"m 475 406 q 404 363 431 375 q 342 351 378 351 q 294 360 317 351 q 249 380 271 369 q 206 399 228 390 q 161 408 185 408 q 140 407 149 408 q 122 400 132 406 q 101 385 113 394 q 68 363 89 376 l 28 422 q 88 468 58 453 q 163 483 118 483 q 208 476 183 483 q 264 456 232 469 q 311 435 294 442 q 346 429 328 429 q 383 438 365 429 q 435 464 401 446 l 475 406 z "},"Š":{"ha":749,"x_min":28,"x_max":721,"o":"m 622 765 q 522 849 578 824 q 392 874 467 874 q 238 833 293 874 q 183 732 183 792 q 206 668 183 696 q 265 619 229 640 q 345 581 301 597 q 429 549 389 564 q 519 514 468 536 q 615 458 569 492 q 690 378 660 425 q 721 267 721 331 q 695 149 721 200 q 624 63 669 97 q 515 11 578 29 q 381 -7 453 -7 q 190 32 276 -7 q 28 157 104 71 l 111 226 q 228 129 160 160 q 383 99 296 99 q 477 110 435 99 q 550 141 519 121 q 598 188 581 161 q 615 247 615 215 q 592 323 615 290 q 532 380 568 356 q 450 422 496 404 q 361 453 404 439 q 259 490 310 471 q 167 537 208 508 q 101 609 126 565 q 76 722 76 653 q 94 818 76 772 q 149 899 111 864 q 246 956 186 935 q 389 976 306 976 q 568 944 489 976 q 718 828 647 913 l 628 757 l 622 765 m 299 1249 l 374 1158 l 450 1249 l 554 1249 l 425 1092 l 324 1092 l 194 1249 l 299 1249 z "},"š":{"ha":558,"x_min":28,"x_max":531,"o":"m 458 531 q 383 598 424 576 q 288 619 343 619 q 188 593 217 619 q 160 526 160 567 q 173 479 160 499 q 208 446 186 460 q 258 422 229 432 q 317 401 286 411 q 392 374 354 389 q 460 336 429 360 q 511 278 492 313 q 531 193 531 244 q 511 108 531 146 q 458 45 492 71 q 380 6 425 19 q 283 -7 335 -7 q 143 20 204 -7 q 28 110 82 47 l 100 176 q 288 79 172 79 q 399 108 363 79 q 435 179 435 138 q 422 233 435 211 q 385 269 408 254 q 333 295 363 285 q 269 315 303 306 q 195 340 232 326 q 129 376 158 354 q 81 431 100 397 q 63 515 63 464 q 126 657 63 607 q 292 707 190 707 q 420 682 364 707 q 528 594 476 657 l 460 529 l 458 531 m 203 972 l 278 882 l 354 972 l 458 972 l 329 815 l 228 815 l 99 972 l 203 972 z "},"Ÿ":{"ha":849,"x_min":28,"x_max":821,"o":"m 424 582 l 699 972 l 821 972 l 476 464 l 475 0 l 372 0 l 372 463 l 28 972 l 150 972 l 424 582 m 253 1193 q 269 1236 253 1219 q 311 1253 285 1253 q 354 1236 338 1253 q 371 1193 371 1219 q 354 1151 371 1167 q 311 1135 338 1135 q 269 1151 285 1135 q 253 1193 253 1167 m 476 1193 q 492 1236 476 1219 q 535 1253 508 1253 q 578 1236 561 1253 q 594 1193 594 1219 q 578 1151 594 1167 q 535 1135 561 1135 q 492 1151 508 1135 q 476 1193 476 1167 z "},"À":{"ha":858,"x_min":28,"x_max":831,"o":"m 610 294 l 249 294 l 144 0 l 28 0 l 374 972 l 485 972 l 831 0 l 714 0 l 610 294 m 285 397 l 572 397 l 429 804 l 285 397 m 392 1096 l 261 1253 l 357 1253 l 486 1096 l 392 1096 z "},"Á":{"ha":858,"x_min":28,"x_max":831,"o":"m 610 294 l 249 294 l 144 0 l 28 0 l 374 972 l 485 972 l 831 0 l 714 0 l 610 294 m 285 397 l 572 397 l 429 804 l 285 397 m 369 1096 l 499 1253 l 594 1253 l 464 1096 l 369 1096 z "},"Â":{"ha":858,"x_min":28,"x_max":831,"o":"m 610 294 l 249 294 l 144 0 l 28 0 l 374 972 l 485 972 l 831 0 l 714 0 l 610 294 m 285 397 l 572 397 l 429 804 l 285 397 m 244 1096 l 374 1253 l 483 1253 l 613 1096 l 504 1096 l 428 1186 l 353 1096 l 244 1096 z "},"Ã":{"ha":858,"x_min":28,"x_max":831,"o":"m 610 294 l 249 294 l 144 0 l 28 0 l 374 972 l 485 972 l 831 0 l 714 0 l 610 294 m 285 397 l 572 397 l 429 804 l 285 397 m 653 1172 q 582 1130 608 1142 q 519 1118 556 1118 q 472 1127 494 1118 q 427 1147 449 1136 q 384 1166 406 1157 q 339 1175 363 1175 q 318 1174 326 1175 q 300 1167 310 1172 q 278 1152 290 1161 q 246 1129 267 1143 l 206 1189 q 266 1235 236 1219 q 340 1250 296 1250 q 385 1243 361 1250 q 442 1222 410 1236 q 489 1202 472 1208 q 524 1196 506 1196 q 561 1204 543 1196 q 613 1231 579 1213 l 653 1172 z "},"Ä":{"ha":858,"x_min":28,"x_max":831,"o":"m 610 294 l 249 294 l 144 0 l 28 0 l 374 972 l 485 972 l 831 0 l 714 0 l 610 294 m 285 397 l 572 397 l 429 804 l 285 397 m 258 1193 q 274 1236 258 1219 q 317 1253 290 1253 q 360 1236 343 1253 q 376 1193 376 1219 q 360 1151 376 1167 q 317 1135 343 1135 q 274 1151 290 1135 q 258 1193 258 1167 m 482 1193 q 498 1236 482 1219 q 540 1253 514 1253 q 583 1236 567 1253 q 600 1193 600 1219 q 583 1151 600 1167 q 540 1135 567 1135 q 498 1151 514 1135 q 482 1193 482 1167 z "},"Å":{"ha":858,"x_min":28,"x_max":831,"o":"m 610 294 l 249 294 l 144 0 l 28 0 l 374 972 l 485 972 l 831 0 l 714 0 l 610 294 m 285 397 l 572 397 l 429 804 l 285 397 m 489 1100 q 474 1150 489 1129 q 425 1171 458 1171 q 377 1150 392 1171 q 363 1100 363 1129 q 377 1052 363 1074 q 425 1031 392 1031 q 474 1051 458 1031 q 489 1100 489 1072 m 572 1100 q 534 998 572 1038 q 425 958 496 958 q 315 999 354 958 q 276 1100 276 1040 q 315 1202 276 1163 q 425 1242 354 1242 q 534 1201 496 1242 q 572 1100 572 1160 z "},"È":{"ha":639,"x_min":28,"x_max":611,"o":"m 28 0 l 28 972 l 607 972 l 607 869 l 131 869 l 131 557 l 564 557 l 564 454 l 131 454 l 131 103 l 611 103 l 611 0 l 28 0 m 296 1096 l 165 1253 l 261 1253 l 390 1096 l 296 1096 z "},"É":{"ha":639,"x_min":28,"x_max":611,"o":"m 28 0 l 28 972 l 607 972 l 607 869 l 131 869 l 131 557 l 564 557 l 564 454 l 131 454 l 131 103 l 611 103 l 611 0 l 28 0 m 263 1096 l 392 1253 l 488 1253 l 357 1096 l 263 1096 z "},"Ê":{"ha":639,"x_min":28,"x_max":611,"o":"m 28 0 l 28 972 l 607 972 l 607 869 l 131 869 l 131 557 l 564 557 l 564 454 l 131 454 l 131 103 l 611 103 l 611 0 l 28 0 m 135 1096 l 264 1253 l 374 1253 l 503 1096 l 394 1096 l 318 1186 l 243 1096 l 135 1096 z "},"Ë":{"ha":639,"x_min":28,"x_max":611,"o":"m 28 0 l 28 972 l 607 972 l 607 869 l 131 869 l 131 557 l 564 557 l 564 454 l 131 454 l 131 103 l 611 103 l 611 0 l 28 0 m 149 1193 q 165 1236 149 1219 q 207 1253 181 1253 q 250 1236 233 1253 q 267 1193 267 1219 q 250 1151 267 1167 q 207 1135 233 1135 q 165 1151 181 1135 q 149 1193 149 1167 m 372 1193 q 388 1236 372 1219 q 431 1253 404 1253 q 474 1236 457 1253 q 490 1193 490 1219 q 474 1151 490 1167 q 431 1135 457 1135 q 388 1151 404 1135 q 372 1193 372 1167 z "},"Ì":{"ha":158,"x_min":-83,"x_max":142,"o":"m 28 0 l 28 972 l 131 972 l 131 0 l 28 0 m 47 1096 l -83 1253 l 13 1253 l 142 1096 l 47 1096 z "},"Í":{"ha":158,"x_min":1,"x_max":226,"o":"m 28 0 l 28 972 l 131 972 l 131 0 l 28 0 m 1 1096 l 131 1253 l 226 1253 l 96 1096 l 1 1096 z "},"Î":{"ha":158,"x_min":-103,"x_max":265,"o":"m 28 0 l 28 972 l 131 972 l 131 0 l 28 0 m -103 1096 l 26 1253 l 136 1253 l 265 1096 l 157 1096 l 81 1186 l 6 1096 l -103 1096 z "},"Ï":{"ha":158,"x_min":-90,"x_max":251,"o":"m 28 0 l 28 972 l 131 972 l 131 0 l 28 0 m -90 1193 q -74 1236 -90 1219 q -32 1253 -58 1253 q 11 1236 -6 1253 q 28 1193 28 1219 q 11 1151 28 1167 q -32 1135 -6 1135 q -74 1151 -58 1135 q -90 1193 -90 1167 m 133 1193 q 149 1236 133 1219 q 192 1253 165 1253 q 235 1236 218 1253 q 251 1193 251 1219 q 235 1151 251 1167 q 192 1135 218 1135 q 149 1151 165 1135 q 133 1193 133 1167 z "},"Ò":{"ha":961,"x_min":28,"x_max":933,"o":"m 829 490 q 807 640 829 569 q 741 765 785 711 q 632 850 697 818 q 479 882 567 882 q 328 851 393 882 q 220 766 264 819 q 154 641 176 713 q 132 490 132 569 q 154 340 132 411 q 220 214 176 268 q 328 128 264 160 q 479 96 393 96 q 632 127 567 96 q 741 213 697 158 q 807 338 785 267 q 829 490 829 410 m 933 492 q 905 304 933 394 q 819 145 876 214 q 677 35 763 76 q 479 -7 592 -7 q 283 35 367 -7 q 142 145 199 76 q 56 304 85 214 q 28 492 28 394 q 56 678 28 589 q 142 835 85 767 q 283 944 199 903 q 479 985 367 985 q 677 944 592 985 q 819 835 763 903 q 905 678 876 767 q 933 492 933 589 m 499 1096 l 368 1253 l 464 1253 l 593 1096 l 499 1096 z "},"Ó":{"ha":961,"x_min":28,"x_max":933,"o":"m 829 490 q 807 640 829 569 q 741 765 785 711 q 632 850 697 818 q 479 882 567 882 q 328 851 393 882 q 220 766 264 819 q 154 641 176 713 q 132 490 132 569 q 154 340 132 411 q 220 214 176 268 q 328 128 264 160 q 479 96 393 96 q 632 127 567 96 q 741 213 697 158 q 807 338 785 267 q 829 490 829 410 m 933 492 q 905 304 933 394 q 819 145 876 214 q 677 35 763 76 q 479 -7 592 -7 q 283 35 367 -7 q 142 145 199 76 q 56 304 85 214 q 28 492 28 394 q 56 678 28 589 q 142 835 85 767 q 283 944 199 903 q 479 985 367 985 q 677 944 592 985 q 819 835 763 903 q 905 678 876 767 q 933 492 933 589 m 368 1096 l 497 1253 l 593 1253 l 463 1096 l 368 1096 z "},"Ô":{"ha":961,"x_min":28,"x_max":933,"o":"m 829 490 q 807 640 829 569 q 741 765 785 711 q 632 850 697 818 q 479 882 567 882 q 328 851 393 882 q 220 766 264 819 q 154 641 176 713 q 132 490 132 569 q 154 340 132 411 q 220 214 176 268 q 328 128 264 160 q 479 96 393 96 q 632 127 567 96 q 741 213 697 158 q 807 338 785 267 q 829 490 829 410 m 933 492 q 905 304 933 394 q 819 145 876 214 q 677 35 763 76 q 479 -7 592 -7 q 283 35 367 -7 q 142 145 199 76 q 56 304 85 214 q 28 492 28 394 q 56 678 28 589 q 142 835 85 767 q 283 944 199 903 q 479 985 367 985 q 677 944 592 985 q 819 835 763 903 q 905 678 876 767 q 933 492 933 589 m 296 1096 l 425 1253 l 535 1253 l 664 1096 l 556 1096 l 479 1186 l 404 1096 l 296 1096 z "},"Õ":{"ha":961,"x_min":28,"x_max":933,"o":"m 829 490 q 807 640 829 569 q 741 765 785 711 q 632 850 697 818 q 479 882 567 882 q 328 851 393 882 q 220 766 264 819 q 154 641 176 713 q 132 490 132 569 q 154 340 132 411 q 220 214 176 268 q 328 128 264 160 q 479 96 393 96 q 632 127 567 96 q 741 213 697 158 q 807 338 785 267 q 829 490 829 410 m 933 492 q 905 304 933 394 q 819 145 876 214 q 677 35 763 76 q 479 -7 592 -7 q 283 35 367 -7 q 142 145 199 76 q 56 304 85 214 q 28 492 28 394 q 56 678 28 589 q 142 835 85 767 q 283 944 199 903 q 479 985 367 985 q 677 944 592 985 q 819 835 763 903 q 905 678 876 767 q 933 492 933 589 m 704 1172 q 633 1130 660 1142 q 571 1118 607 1118 q 523 1127 546 1118 q 478 1147 500 1136 q 435 1166 457 1157 q 390 1175 414 1175 q 369 1174 378 1175 q 351 1167 361 1172 q 330 1152 342 1161 q 297 1129 318 1143 l 257 1189 q 317 1235 288 1219 q 392 1250 347 1250 q 437 1243 413 1250 q 493 1222 461 1236 q 540 1202 524 1208 q 575 1196 557 1196 q 613 1204 594 1196 q 664 1231 631 1213 l 704 1172 z "},"Ö":{"ha":961,"x_min":28,"x_max":933,"o":"m 829 490 q 807 640 829 569 q 741 765 785 711 q 632 850 697 818 q 479 882 567 882 q 328 851 393 882 q 220 766 264 819 q 154 641 176 713 q 132 490 132 569 q 154 340 132 411 q 220 214 176 268 q 328 128 264 160 q 479 96 393 96 q 632 127 567 96 q 741 213 697 158 q 807 338 785 267 q 829 490 829 410 m 933 492 q 905 304 933 394 q 819 145 876 214 q 677 35 763 76 q 479 -7 592 -7 q 283 35 367 -7 q 142 145 199 76 q 56 304 85 214 q 28 492 28 394 q 56 678 28 589 q 142 835 85 767 q 283 944 199 903 q 479 985 367 985 q 677 944 592 985 q 819 835 763 903 q 905 678 876 767 q 933 492 933 589 m 310 1193 q 326 1236 310 1219 q 368 1253 342 1253 q 411 1236 394 1253 q 428 1193 428 1219 q 411 1151 428 1167 q 368 1135 394 1135 q 326 1151 342 1135 q 310 1193 310 1167 m 533 1193 q 549 1236 533 1219 q 592 1253 565 1253 q 635 1236 618 1253 q 651 1193 651 1219 q 635 1151 651 1167 q 592 1135 618 1135 q 549 1151 565 1135 q 533 1193 533 1167 z "},"Ñ":{"ha":836,"x_min":28,"x_max":808,"o":"m 722 0 l 128 788 l 128 0 l 28 0 l 28 972 l 111 972 l 708 185 l 708 972 l 808 972 l 808 0 l 722 0 m 642 1172 q 571 1130 597 1142 q 508 1118 544 1118 q 460 1127 483 1118 q 416 1147 438 1136 q 373 1166 394 1157 q 328 1175 351 1175 q 307 1174 315 1175 q 289 1167 299 1172 q 267 1152 279 1161 q 235 1129 256 1143 l 194 1189 q 255 1235 225 1219 q 329 1250 285 1250 q 374 1243 350 1250 q 431 1222 399 1236 q 478 1202 461 1208 q 513 1196 494 1196 q 550 1204 532 1196 q 601 1231 568 1213 l 642 1172 z "},"Ù":{"ha":833,"x_min":28,"x_max":806,"o":"m 415 -10 q 349 -6 382 -10 q 223 28 281 3 q 123 96 165 54 q 56 194 81 138 q 28 319 31 250 l 28 336 l 28 972 l 131 972 l 131 335 q 150 231 131 275 q 203 158 169 188 q 283 114 238 129 q 381 94 329 99 q 393 93 388 93 q 406 93 399 93 l 415 93 l 418 93 l 428 93 q 440 93 435 93 q 451 94 444 93 q 549 114 503 99 q 629 158 594 129 q 683 231 664 188 q 703 335 703 275 l 703 972 l 806 972 l 806 336 l 806 319 q 778 194 803 250 q 710 96 753 138 q 609 28 667 54 q 483 -6 551 3 l 432 -10 l 418 -10 l 415 -10 m 435 1096 l 304 1253 l 400 1253 l 529 1096 l 435 1096 z "},"Ú":{"ha":833,"x_min":28,"x_max":806,"o":"m 415 -10 q 349 -6 382 -10 q 223 28 281 3 q 123 96 165 54 q 56 194 81 138 q 28 319 31 250 l 28 336 l 28 972 l 131 972 l 131 335 q 150 231 131 275 q 203 158 169 188 q 283 114 238 129 q 381 94 329 99 q 393 93 388 93 q 406 93 399 93 l 415 93 l 418 93 l 428 93 q 440 93 435 93 q 451 94 444 93 q 549 114 503 99 q 629 158 594 129 q 683 231 664 188 q 703 335 703 275 l 703 972 l 806 972 l 806 336 l 806 319 q 778 194 803 250 q 710 96 753 138 q 609 28 667 54 q 483 -6 551 3 l 432 -10 l 418 -10 l 415 -10 m 304 1096 l 433 1253 l 529 1253 l 399 1096 l 304 1096 z "},"Û":{"ha":833,"x_min":28,"x_max":806,"o":"m 415 -10 q 349 -6 382 -10 q 223 28 281 3 q 123 96 165 54 q 56 194 81 138 q 28 319 31 250 l 28 336 l 28 972 l 131 972 l 131 335 q 150 231 131 275 q 203 158 169 188 q 283 114 238 129 q 381 94 329 99 q 393 93 388 93 q 406 93 399 93 l 415 93 l 418 93 l 428 93 q 440 93 435 93 q 451 94 444 93 q 549 114 503 99 q 629 158 594 129 q 683 231 664 188 q 703 335 703 275 l 703 972 l 806 972 l 806 336 l 806 319 q 778 194 803 250 q 710 96 753 138 q 609 28 667 54 q 483 -6 551 3 l 432 -10 l 418 -10 l 415 -10 m 232 1096 l 361 1253 l 471 1253 l 600 1096 l 492 1096 l 415 1186 l 340 1096 l 232 1096 z "},"Ü":{"ha":833,"x_min":28,"x_max":806,"o":"m 415 -10 q 349 -6 382 -10 q 223 28 281 3 q 123 96 165 54 q 56 194 81 138 q 28 319 31 250 l 28 336 l 28 972 l 131 972 l 131 335 q 150 231 131 275 q 203 158 169 188 q 283 114 238 129 q 381 94 329 99 q 393 93 388 93 q 406 93 399 93 l 415 93 l 418 93 l 428 93 q 440 93 435 93 q 451 94 444 93 q 549 114 503 99 q 629 158 594 129 q 683 231 664 188 q 703 335 703 275 l 703 972 l 806 972 l 806 336 l 806 319 q 778 194 803 250 q 710 96 753 138 q 609 28 667 54 q 483 -6 551 3 l 432 -10 l 418 -10 l 415 -10 m 246 1193 q 262 1236 246 1219 q 304 1253 278 1253 q 347 1236 331 1253 q 364 1193 364 1219 q 347 1151 364 1167 q 304 1135 331 1135 q 262 1151 278 1135 q 246 1193 246 1167 m 469 1193 q 485 1236 469 1219 q 528 1253 501 1253 q 571 1236 554 1253 q 588 1193 588 1219 q 571 1151 588 1167 q 528 1135 554 1135 q 485 1151 501 1135 q 469 1193 469 1167 z "},"Ý":{"ha":849,"x_min":28,"x_max":821,"o":"m 424 582 l 699 972 l 821 972 l 476 464 l 475 0 l 372 0 l 372 463 l 28 972 l 150 972 l 424 582 m 311 1096 l 440 1253 l 536 1253 l 406 1096 l 311 1096 z "},"à":{"ha":622,"x_min":28,"x_max":594,"o":"m 499 301 q 408 324 456 321 q 313 328 361 328 q 244 322 278 328 q 184 300 211 315 q 140 258 157 285 q 124 192 124 232 q 167 104 124 133 q 289 75 211 75 q 408 98 353 75 q 499 179 463 121 l 499 301 m 499 0 l 499 74 q 452 30 478 46 q 398 6 426 14 q 337 -5 369 -3 q 268 -7 304 -7 q 173 6 217 -7 q 97 43 129 18 q 46 105 64 68 q 28 190 28 142 q 49 292 28 249 q 108 363 71 335 q 193 406 144 392 q 296 419 242 419 q 403 415 351 419 q 499 394 454 411 l 499 451 q 449 573 499 531 q 313 615 400 615 q 219 602 257 615 q 143 542 181 589 l 75 600 q 176 677 119 653 q 317 701 233 701 q 429 686 378 701 q 517 640 481 671 q 574 565 554 610 q 594 463 594 521 l 594 0 l 499 0 m 329 815 l 199 972 l 294 972 l 424 815 l 329 815 z "},"á":{"ha":622,"x_min":28,"x_max":594,"o":"m 499 301 q 408 324 456 321 q 313 328 361 328 q 244 322 278 328 q 184 300 211 315 q 140 258 157 285 q 124 192 124 232 q 167 104 124 133 q 289 75 211 75 q 408 98 353 75 q 499 179 463 121 l 499 301 m 499 0 l 499 74 q 452 30 478 46 q 398 6 426 14 q 337 -5 369 -3 q 268 -7 304 -7 q 173 6 217 -7 q 97 43 129 18 q 46 105 64 68 q 28 190 28 142 q 49 292 28 249 q 108 363 71 335 q 193 406 144 392 q 296 419 242 419 q 403 415 351 419 q 499 394 454 411 l 499 451 q 449 573 499 531 q 313 615 400 615 q 219 602 257 615 q 143 542 181 589 l 75 600 q 176 677 119 653 q 317 701 233 701 q 429 686 378 701 q 517 640 481 671 q 574 565 554 610 q 594 463 594 521 l 594 0 l 499 0 m 199 815 l 328 972 l 424 972 l 293 815 l 199 815 z "},"â":{"ha":622,"x_min":28,"x_max":594,"o":"m 499 301 q 408 324 456 321 q 313 328 361 328 q 244 322 278 328 q 184 300 211 315 q 140 258 157 285 q 124 192 124 232 q 167 104 124 133 q 289 75 211 75 q 408 98 353 75 q 499 179 463 121 l 499 301 m 499 0 l 499 74 q 452 30 478 46 q 398 6 426 14 q 337 -5 369 -3 q 268 -7 304 -7 q 173 6 217 -7 q 97 43 129 18 q 46 105 64 68 q 28 190 28 142 q 49 292 28 249 q 108 363 71 335 q 193 406 144 392 q 296 419 242 419 q 403 415 351 419 q 499 394 454 411 l 499 451 q 449 573 499 531 q 313 615 400 615 q 219 602 257 615 q 143 542 181 589 l 75 600 q 176 677 119 653 q 317 701 233 701 q 429 686 378 701 q 517 640 481 671 q 574 565 554 610 q 594 463 594 521 l 594 0 l 499 0 m 126 815 l 256 972 l 365 972 l 494 815 l 386 815 l 310 906 l 235 815 l 126 815 z "},"ã":{"ha":622,"x_min":28,"x_max":594,"o":"m 499 301 q 408 324 456 321 q 313 328 361 328 q 244 322 278 328 q 184 300 211 315 q 140 258 157 285 q 124 192 124 232 q 167 104 124 133 q 289 75 211 75 q 408 98 353 75 q 499 179 463 121 l 499 301 m 499 0 l 499 74 q 452 30 478 46 q 398 6 426 14 q 337 -5 369 -3 q 268 -7 304 -7 q 173 6 217 -7 q 97 43 129 18 q 46 105 64 68 q 28 190 28 142 q 49 292 28 249 q 108 363 71 335 q 193 406 144 392 q 296 419 242 419 q 403 415 351 419 q 499 394 454 411 l 499 451 q 449 573 499 531 q 313 615 400 615 q 219 602 257 615 q 143 542 181 589 l 75 600 q 176 677 119 653 q 317 701 233 701 q 429 686 378 701 q 517 640 481 671 q 574 565 554 610 q 594 463 594 521 l 594 0 l 499 0 m 535 892 q 464 849 490 861 q 401 838 438 838 q 353 847 376 838 q 309 866 331 856 q 266 885 288 876 q 221 894 244 894 q 200 893 208 894 q 182 886 192 892 q 160 872 172 881 q 128 849 149 863 l 88 908 q 148 954 118 939 q 222 969 178 969 q 267 963 243 969 q 324 942 292 956 q 371 922 354 928 q 406 915 388 915 q 443 924 425 915 q 494 950 461 932 l 535 892 z "},"ä":{"ha":622,"x_min":28,"x_max":594,"o":"m 499 301 q 408 324 456 321 q 313 328 361 328 q 244 322 278 328 q 184 300 211 315 q 140 258 157 285 q 124 192 124 232 q 167 104 124 133 q 289 75 211 75 q 408 98 353 75 q 499 179 463 121 l 499 301 m 499 0 l 499 74 q 452 30 478 46 q 398 6 426 14 q 337 -5 369 -3 q 268 -7 304 -7 q 173 6 217 -7 q 97 43 129 18 q 46 105 64 68 q 28 190 28 142 q 49 292 28 249 q 108 363 71 335 q 193 406 144 392 q 296 419 242 419 q 403 415 351 419 q 499 394 454 411 l 499 451 q 449 573 499 531 q 313 615 400 615 q 219 602 257 615 q 143 542 181 589 l 75 600 q 176 677 119 653 q 317 701 233 701 q 429 686 378 701 q 517 640 481 671 q 574 565 554 610 q 594 463 594 521 l 594 0 l 499 0 m 140 913 q 156 956 140 939 q 199 972 172 972 q 242 956 225 972 q 258 913 258 939 q 242 870 258 886 q 199 854 225 854 q 156 870 172 854 q 140 913 140 886 m 364 913 q 380 956 364 939 q 422 972 396 972 q 465 956 449 972 q 482 913 482 939 q 465 870 482 886 q 422 854 449 854 q 380 870 396 854 q 364 913 364 886 z "},"å":{"ha":622,"x_min":28,"x_max":594,"o":"m 499 301 q 408 324 456 321 q 313 328 361 328 q 244 322 278 328 q 184 300 211 315 q 140 258 157 285 q 124 192 124 232 q 167 104 124 133 q 289 75 211 75 q 408 98 353 75 q 499 179 463 121 l 499 301 m 499 0 l 499 74 q 452 30 478 46 q 398 6 426 14 q 337 -5 369 -3 q 268 -7 304 -7 q 173 6 217 -7 q 97 43 129 18 q 46 105 64 68 q 28 190 28 142 q 49 292 28 249 q 108 363 71 335 q 193 406 144 392 q 296 419 242 419 q 403 415 351 419 q 499 394 454 411 l 499 451 q 449 573 499 531 q 313 615 400 615 q 219 602 257 615 q 143 542 181 589 l 75 600 q 176 677 119 653 q 317 701 233 701 q 429 686 378 701 q 517 640 481 671 q 574 565 554 610 q 594 463 594 521 l 594 0 l 499 0 m 371 819 q 356 869 371 849 q 307 890 340 890 q 259 869 274 890 q 244 819 244 849 q 259 772 244 793 q 307 750 274 750 q 356 771 340 750 q 371 819 371 792 m 454 819 q 416 717 454 757 q 307 678 378 678 q 197 719 236 678 q 158 819 158 760 q 197 922 158 882 q 307 961 236 961 q 416 920 378 961 q 454 819 454 879 z "},"æ":{"ha":1147,"x_min":28,"x_max":1119,"o":"m 1097 101 q 985 22 1049 49 q 831 -6 921 -6 q 685 22 747 -6 q 594 85 632 46 l 594 0 l 499 0 l 499 74 q 452 30 478 46 q 398 6 426 14 q 337 -5 369 -3 q 268 -7 304 -7 q 173 6 217 -7 q 97 43 129 18 q 46 105 64 68 q 28 190 28 142 q 49 292 28 249 q 108 363 71 335 q 193 406 144 392 q 296 419 242 419 q 403 415 351 419 q 499 394 454 411 l 499 451 q 449 573 499 531 q 313 615 400 615 q 219 602 257 615 q 143 542 181 589 l 75 600 q 176 677 119 653 q 317 701 233 701 q 429 686 378 701 q 517 640 481 671 q 564 583 546 617 q 590 614 576 600 q 690 680 633 658 q 811 701 747 701 q 1042 608 964 701 q 1117 335 1119 514 l 596 335 q 664 147 600 217 q 838 78 728 78 q 949 98 899 78 q 1039 163 999 118 l 1097 101 m 499 301 q 408 324 456 321 q 313 328 361 328 q 244 322 278 328 q 184 300 211 315 q 140 258 157 285 q 124 192 124 232 q 167 104 124 133 q 289 75 211 75 q 408 98 353 75 q 499 179 463 121 l 499 301 m 1019 417 q 1006 497 1019 460 q 969 561 993 535 q 906 603 944 588 q 815 619 867 619 q 724 603 763 619 q 664 563 686 588 q 623 499 642 538 q 599 417 604 461 l 1019 417 z "},"ç":{"ha":644,"x_min":28,"x_max":617,"o":"m 617 107 q 506 26 568 56 q 353 -4 443 -4 q 206 26 268 -4 q 105 105 144 56 q 47 218 65 154 q 28 350 28 282 q 49 489 28 425 q 110 601 69 553 q 211 676 150 649 q 351 703 272 703 q 501 673 438 703 q 610 592 564 643 l 546 528 q 463 594 510 569 q 354 619 415 619 q 249 598 292 619 q 178 540 206 576 q 139 456 151 504 q 126 353 126 407 q 140 252 126 301 q 181 165 153 203 q 253 103 208 126 q 358 79 297 79 q 467 101 415 79 q 560 168 519 122 l 617 107 m 251 -232 q 199 -224 224 -232 q 150 -206 174 -217 l 174 -143 q 208 -158 189 -151 q 250 -165 226 -165 q 316 -142 289 -165 q 343 -65 343 -119 q 332 15 343 -29 l 399 15 q 408 -25 404 -3 q 411 -71 411 -47 q 368 -190 411 -147 q 251 -232 325 -232 z "},"è":{"ha":678,"x_min":28,"x_max":650,"o":"m 628 101 q 515 22 579 49 q 361 -6 451 -6 q 215 23 278 -6 q 111 100 153 51 q 49 211 69 149 q 28 343 28 274 q 53 502 28 435 q 121 614 78 569 q 221 680 164 658 q 342 701 278 701 q 572 608 494 701 q 647 335 650 514 l 126 335 q 194 147 131 217 q 368 78 258 78 q 479 98 429 78 q 569 163 529 118 l 628 101 m 550 417 q 537 497 550 460 q 499 561 524 535 q 436 603 475 588 q 346 619 397 619 q 255 603 293 619 q 194 563 217 588 q 153 499 172 538 q 129 417 135 461 l 550 417 m 357 815 l 226 972 l 322 972 l 451 815 l 357 815 z "},"é":{"ha":678,"x_min":28,"x_max":650,"o":"m 628 101 q 515 22 579 49 q 361 -6 451 -6 q 215 23 278 -6 q 111 100 153 51 q 49 211 69 149 q 28 343 28 274 q 53 502 28 435 q 121 614 78 569 q 221 680 164 658 q 342 701 278 701 q 572 608 494 701 q 647 335 650 514 l 126 335 q 194 147 131 217 q 368 78 258 78 q 479 98 429 78 q 569 163 529 118 l 628 101 m 550 417 q 537 497 550 460 q 499 561 524 535 q 436 603 475 588 q 346 619 397 619 q 255 603 293 619 q 194 563 217 588 q 153 499 172 538 q 129 417 135 461 l 550 417 m 226 815 l 356 972 l 451 972 l 321 815 l 226 815 z "},"ê":{"ha":678,"x_min":28,"x_max":650,"o":"m 628 101 q 515 22 579 49 q 361 -6 451 -6 q 215 23 278 -6 q 111 100 153 51 q 49 211 69 149 q 28 343 28 274 q 53 502 28 435 q 121 614 78 569 q 221 680 164 658 q 342 701 278 701 q 572 608 494 701 q 647 335 650 514 l 126 335 q 194 147 131 217 q 368 78 258 78 q 479 98 429 78 q 569 163 529 118 l 628 101 m 550 417 q 537 497 550 460 q 499 561 524 535 q 436 603 475 588 q 346 619 397 619 q 255 603 293 619 q 194 563 217 588 q 153 499 172 538 q 129 417 135 461 l 550 417 m 154 815 l 283 972 l 393 972 l 522 815 l 414 815 l 338 906 l 263 815 l 154 815 z "},"ë":{"ha":678,"x_min":28,"x_max":650,"o":"m 628 101 q 515 22 579 49 q 361 -6 451 -6 q 215 23 278 -6 q 111 100 153 51 q 49 211 69 149 q 28 343 28 274 q 53 502 28 435 q 121 614 78 569 q 221 680 164 658 q 342 701 278 701 q 572 608 494 701 q 647 335 650 514 l 126 335 q 194 147 131 217 q 368 78 258 78 q 479 98 429 78 q 569 163 529 118 l 628 101 m 550 417 q 537 497 550 460 q 499 561 524 535 q 436 603 475 588 q 346 619 397 619 q 255 603 293 619 q 194 563 217 588 q 153 499 172 538 q 129 417 135 461 l 550 417 m 168 913 q 184 956 168 939 q 226 972 200 972 q 269 956 253 972 q 286 913 286 939 q 269 870 286 886 q 226 854 253 854 q 184 870 200 854 q 168 913 168 886 m 392 913 q 408 956 392 939 q 450 972 424 972 q 493 956 476 972 q 510 913 510 939 q 493 870 510 886 q 450 854 476 854 q 408 870 424 854 q 392 913 392 886 z "},"ì":{"ha":174,"x_min":-25,"x_max":200,"o":"m 39 0 l 39 694 l 136 694 l 136 0 l 39 0 m 106 815 l -25 972 l 71 972 l 200 815 l 106 815 z "},"í":{"ha":174,"x_min":-25,"x_max":200,"o":"m 39 0 l 39 694 l 136 694 l 136 0 l 39 0 m -25 815 l 104 972 l 200 972 l 69 815 l -25 815 z "},"î":{"ha":174,"x_min":-97,"x_max":271,"o":"m 39 0 l 39 694 l 136 694 l 136 0 l 39 0 m -97 815 l 32 972 l 142 972 l 271 815 l 163 815 l 86 906 l 11 815 l -97 815 z "},"ï":{"ha":174,"x_min":-83,"x_max":258,"o":"m 39 0 l 39 694 l 136 694 l 136 0 l 39 0 m -83 913 q -67 956 -83 939 q -25 972 -51 972 q 18 956 1 972 q 35 913 35 939 q 18 870 35 886 q -25 854 1 854 q -67 870 -51 854 q -83 913 -83 886 m 140 913 q 156 956 140 939 q 199 972 172 972 q 242 956 225 972 q 258 913 258 939 q 242 870 258 886 q 199 854 225 854 q 156 870 172 854 q 140 913 140 886 z "},"ñ":{"ha":638,"x_min":28,"x_max":610,"o":"m 514 0 l 514 444 q 462 576 514 532 q 333 619 410 619 q 260 603 293 619 q 202 563 228 588 q 158 511 176 539 q 125 460 139 483 l 125 0 l 28 0 l 28 696 l 125 696 l 125 601 q 215 677 158 646 q 354 708 272 708 q 453 692 407 708 q 535 646 500 676 q 590 569 569 615 q 610 464 610 524 l 610 0 l 514 0 m 542 892 q 471 849 497 861 q 408 838 444 838 q 360 847 383 838 q 316 866 338 856 q 273 885 294 876 q 228 894 251 894 q 207 893 215 894 q 189 886 199 892 q 167 872 179 881 q 135 849 156 863 l 94 908 q 155 954 125 939 q 229 969 185 969 q 274 963 250 969 q 331 942 299 956 q 378 922 361 928 q 413 915 394 915 q 450 924 432 915 q 501 950 468 932 l 542 892 z "},"ò":{"ha":704,"x_min":28,"x_max":676,"o":"m 574 344 q 561 455 574 404 q 522 543 549 506 q 453 602 496 581 q 351 624 411 624 q 250 603 292 624 q 182 545 208 582 q 143 457 156 508 q 131 346 131 406 q 143 236 131 288 q 182 147 156 185 q 250 88 208 110 q 351 67 292 67 q 453 88 411 67 q 522 146 496 108 q 561 234 549 183 q 574 344 574 285 m 676 343 q 656 203 676 268 q 596 91 636 139 q 494 16 556 43 q 351 -11 433 -11 q 209 17 269 -11 q 108 94 149 46 q 48 208 68 143 q 28 347 28 274 q 48 487 28 422 q 108 599 68 551 q 209 674 149 647 q 351 701 269 701 q 494 674 433 701 q 596 597 556 646 q 656 483 636 549 q 676 343 676 418 m 369 815 l 239 972 l 335 972 l 464 815 l 369 815 z "},"ó":{"ha":704,"x_min":28,"x_max":676,"o":"m 574 344 q 561 455 574 404 q 522 543 549 506 q 453 602 496 581 q 351 624 411 624 q 250 603 292 624 q 182 545 208 582 q 143 457 156 508 q 131 346 131 406 q 143 236 131 288 q 182 147 156 185 q 250 88 208 110 q 351 67 292 67 q 453 88 411 67 q 522 146 496 108 q 561 234 549 183 q 574 344 574 285 m 676 343 q 656 203 676 268 q 596 91 636 139 q 494 16 556 43 q 351 -11 433 -11 q 209 17 269 -11 q 108 94 149 46 q 48 208 68 143 q 28 347 28 274 q 48 487 28 422 q 108 599 68 551 q 209 674 149 647 q 351 701 269 701 q 494 674 433 701 q 596 597 556 646 q 656 483 636 549 q 676 343 676 418 m 239 815 l 368 972 l 464 972 l 333 815 l 239 815 z "},"ô":{"ha":704,"x_min":28,"x_max":676,"o":"m 574 344 q 561 455 574 404 q 522 543 549 506 q 453 602 496 581 q 351 624 411 624 q 250 603 292 624 q 182 545 208 582 q 143 457 156 508 q 131 346 131 406 q 143 236 131 288 q 182 147 156 185 q 250 88 208 110 q 351 67 292 67 q 453 88 411 67 q 522 146 496 108 q 561 234 549 183 q 574 344 574 285 m 676 343 q 656 203 676 268 q 596 91 636 139 q 494 16 556 43 q 351 -11 433 -11 q 209 17 269 -11 q 108 94 149 46 q 48 208 68 143 q 28 347 28 274 q 48 487 28 422 q 108 599 68 551 q 209 674 149 647 q 351 701 269 701 q 494 674 433 701 q 596 597 556 646 q 656 483 636 549 q 676 343 676 418 m 168 815 l 297 972 l 407 972 l 536 815 l 428 815 l 351 906 l 276 815 l 168 815 z "},"õ":{"ha":704,"x_min":28,"x_max":676,"o":"m 574 344 q 561 455 574 404 q 522 543 549 506 q 453 602 496 581 q 351 624 411 624 q 250 603 292 624 q 182 545 208 582 q 143 457 156 508 q 131 346 131 406 q 143 236 131 288 q 182 147 156 185 q 250 88 208 110 q 351 67 292 67 q 453 88 411 67 q 522 146 496 108 q 561 234 549 183 q 574 344 574 285 m 676 343 q 656 203 676 268 q 596 91 636 139 q 494 16 556 43 q 351 -11 433 -11 q 209 17 269 -11 q 108 94 149 46 q 48 208 68 143 q 28 347 28 274 q 48 487 28 422 q 108 599 68 551 q 209 674 149 647 q 351 701 269 701 q 494 674 433 701 q 596 597 556 646 q 656 483 636 549 q 676 343 676 418 m 575 892 q 504 849 531 861 q 442 838 478 838 q 394 847 417 838 q 349 866 371 856 q 306 885 328 876 q 261 894 285 894 q 240 893 249 894 q 222 886 232 892 q 201 872 213 881 q 168 849 189 863 l 128 908 q 188 954 158 939 q 263 969 218 969 q 308 963 283 969 q 364 942 332 956 q 411 922 394 928 q 446 915 428 915 q 483 924 465 915 q 535 950 501 932 l 575 892 z "},"ö":{"ha":704,"x_min":28,"x_max":676,"o":"m 574 344 q 561 455 574 404 q 522 543 549 506 q 453 602 496 581 q 351 624 411 624 q 250 603 292 624 q 182 545 208 582 q 143 457 156 508 q 131 346 131 406 q 143 236 131 288 q 182 147 156 185 q 250 88 208 110 q 351 67 292 67 q 453 88 411 67 q 522 146 496 108 q 561 234 549 183 q 574 344 574 285 m 676 343 q 656 203 676 268 q 596 91 636 139 q 494 16 556 43 q 351 -11 433 -11 q 209 17 269 -11 q 108 94 149 46 q 48 208 68 143 q 28 347 28 274 q 48 487 28 422 q 108 599 68 551 q 209 674 149 647 q 351 701 269 701 q 494 674 433 701 q 596 597 556 646 q 656 483 636 549 q 676 343 676 418 m 181 913 q 197 956 181 939 q 239 972 213 972 q 282 956 265 972 q 299 913 299 939 q 282 870 299 886 q 239 854 265 854 q 197 870 213 854 q 181 913 181 886 m 404 913 q 420 956 404 939 q 463 972 436 972 q 506 956 489 972 q 522 913 522 939 q 506 870 522 886 q 463 854 489 854 q 420 870 436 854 q 404 913 404 886 z "},"ù":{"ha":656,"x_min":28,"x_max":628,"o":"m 125 694 l 125 253 q 140 176 125 208 q 182 121 156 143 q 243 88 208 99 q 317 76 278 76 q 451 110 400 76 q 529 190 501 143 l 529 694 l 628 694 l 628 0 l 535 0 l 535 78 q 293 -10 464 -10 q 190 6 238 -10 q 106 51 142 21 q 49 128 69 82 q 28 233 28 174 l 28 694 l 125 694 m 346 815 l 215 972 l 311 972 l 440 815 l 346 815 z "},"ú":{"ha":656,"x_min":28,"x_max":628,"o":"m 125 694 l 125 253 q 140 176 125 208 q 182 121 156 143 q 243 88 208 99 q 317 76 278 76 q 451 110 400 76 q 529 190 501 143 l 529 694 l 628 694 l 628 0 l 535 0 l 535 78 q 293 -10 464 -10 q 190 6 238 -10 q 106 51 142 21 q 49 128 69 82 q 28 233 28 174 l 28 694 l 125 694 m 215 815 l 344 972 l 440 972 l 310 815 l 215 815 z "},"û":{"ha":656,"x_min":28,"x_max":628,"o":"m 125 694 l 125 253 q 140 176 125 208 q 182 121 156 143 q 243 88 208 99 q 317 76 278 76 q 451 110 400 76 q 529 190 501 143 l 529 694 l 628 694 l 628 0 l 535 0 l 535 78 q 293 -10 464 -10 q 190 6 238 -10 q 106 51 142 21 q 49 128 69 82 q 28 233 28 174 l 28 694 l 125 694 m 143 815 l 272 972 l 382 972 l 511 815 l 403 815 l 326 906 l 251 815 l 143 815 z "},"ü":{"ha":656,"x_min":28,"x_max":628,"o":"m 125 694 l 125 253 q 140 176 125 208 q 182 121 156 143 q 243 88 208 99 q 317 76 278 76 q 451 110 400 76 q 529 190 501 143 l 529 694 l 628 694 l 628 0 l 535 0 l 535 78 q 293 -10 464 -10 q 190 6 238 -10 q 106 51 142 21 q 49 128 69 82 q 28 233 28 174 l 28 694 l 125 694 m 157 913 q 173 956 157 939 q 215 972 189 972 q 258 956 242 972 q 275 913 275 939 q 258 870 275 886 q 215 854 242 854 q 173 870 189 854 q 157 913 157 886 m 381 913 q 397 956 381 939 q 439 972 413 972 q 482 956 465 972 q 499 913 499 939 q 482 870 499 886 q 439 854 465 854 q 397 870 413 854 q 381 913 381 886 z "},"ý":{"ha":732,"x_min":28,"x_max":704,"o":"m 101 -204 q 168 -186 131 -199 q 240 -151 206 -174 q 297 -94 274 -128 q 319 -11 319 -60 l 28 694 l 138 694 l 369 111 l 600 694 l 704 694 l 415 -11 l 390 -78 q 354 -154 378 -118 q 296 -218 331 -190 q 217 -264 261 -246 q 122 -287 174 -282 l 101 -204 m 253 815 l 382 972 l 478 972 l 347 815 l 253 815 z "},"ÿ":{"ha":732,"x_min":28,"x_max":704,"o":"m 101 -204 q 168 -186 131 -199 q 240 -151 206 -174 q 297 -94 274 -128 q 319 -11 319 -60 l 28 694 l 138 694 l 369 111 l 600 694 l 704 694 l 415 -11 l 390 -78 q 354 -154 378 -118 q 296 -218 331 -190 q 217 -264 261 -246 q 122 -287 174 -282 l 101 -204 m 194 913 q 210 956 194 939 q 253 972 226 972 q 296 956 279 972 q 313 913 313 939 q 296 870 313 886 q 253 854 279 854 q 210 870 226 854 q 194 913 194 886 m 418 913 q 434 956 418 939 q 476 972 450 972 q 519 956 503 972 q 536 913 536 939 q 519 870 536 886 q 476 854 503 854 q 434 870 450 854 q 418 913 418 886 z "},"O":{"ha":961,"x_min":28,"x_max":933,"o":"m 829 490 q 807 640 829 569 q 741 765 785 711 q 632 850 697 818 q 479 882 567 882 q 328 851 393 882 q 220 766 264 819 q 154 641 176 713 q 132 490 132 569 q 154 340 132 411 q 220 214 176 268 q 328 128 264 160 q 479 96 393 96 q 632 127 567 96 q 741 213 697 158 q 807 338 785 267 q 829 490 829 410 m 933 492 q 905 304 933 394 q 819 145 876 214 q 677 35 763 76 q 479 -7 592 -7 q 283 35 367 -7 q 142 145 199 76 q 56 304 85 214 q 28 492 28 394 q 56 678 28 589 q 142 835 85 767 q 283 944 199 903 q 479 985 367 985 q 677 944 592 985 q 819 835 763 903 q 905 678 876 767 q 933 492 933 589 z "},"²":{"ha":385,"x_min":28,"x_max":357,"o":"m 34 474 l 196 649 q 226 684 210 665 q 255 724 242 703 q 277 765 269 745 q 286 806 286 786 q 279 848 286 828 q 257 883 271 868 q 223 906 243 897 q 177 914 203 914 q 111 895 138 914 q 74 843 85 876 l 28 881 q 89 945 49 921 q 177 969 128 969 q 246 957 216 969 q 297 923 276 945 q 329 870 318 901 q 341 804 341 840 q 331 754 341 779 q 308 705 322 729 q 276 660 293 681 q 243 621 258 638 l 169 539 l 105 469 l 358 469 l 358 417 l 34 417 l 34 474 z "},"³":{"ha":408,"x_min":28,"x_max":381,"o":"m 381 574 q 366 505 381 535 q 324 456 350 476 q 263 426 298 436 q 190 416 228 416 q 101 432 138 416 q 28 482 63 447 l 73 519 q 125 478 95 490 q 190 465 156 465 q 288 494 252 465 q 323 574 323 523 q 281 657 323 629 q 161 685 238 685 l 143 685 l 143 739 l 163 739 q 217 746 192 739 q 259 764 241 752 q 288 795 277 776 q 298 838 298 814 q 289 874 298 857 q 266 903 281 890 q 231 922 251 915 q 188 928 211 928 q 122 916 148 928 q 75 878 96 904 l 34 913 q 100 962 65 946 q 187 977 135 977 q 254 969 223 977 q 308 943 285 960 q 344 900 330 926 q 357 839 357 874 q 332 761 357 793 q 268 716 308 730 q 349 668 318 703 q 381 574 381 633 z "},"Þ":{"ha":661,"x_min":28,"x_max":633,"o":"m 125 682 q 197 697 161 692 q 271 703 233 703 q 406 683 340 703 q 522 619 471 663 q 603 510 572 576 q 633 350 633 443 q 608 208 633 272 q 535 96 583 143 q 419 22 488 49 q 267 -4 351 -4 q 125 8 197 -4 l 125 -293 l 29 -293 l 29 32 q 28 33 29 32 l 28 978 l 125 978 l 125 682 m 532 349 q 459 549 532 479 q 263 619 386 619 q 194 612 229 619 q 125 593 158 604 l 125 101 q 199 84 161 89 q 275 79 236 79 q 465 153 397 79 q 532 349 532 228 z "},"P":{"ha":696,"x_min":28,"x_max":668,"o":"m 131 415 l 131 0 l 28 0 l 28 972 l 390 972 q 498 950 447 972 q 586 890 549 928 q 646 802 624 853 q 668 693 668 751 q 646 584 668 635 q 586 496 624 533 q 498 437 549 458 q 390 415 447 415 l 131 415 m 131 518 l 390 518 q 458 532 426 518 q 514 569 490 546 q 551 625 538 593 q 565 693 565 657 q 551 761 565 729 q 514 817 538 793 q 458 855 490 840 q 390 869 426 869 l 131 869 l 131 518 z "}}}
